adventprofmm_reg_krn_t1.ufo
<glyph name="percent" format="1">
  <advance width="711"/>
  <unicode hex="0025"/>
  <outline>
    <contour>
      <point x="48" y="0" type="line"/>
      <point x="115" y="0" type="line"/>
      <point x="649" y="698" type="line"/>
      <point x="585" y="698" type="line"/>
    </contour>
    <contour>
      <point x="175" y="712" type="curve" smooth="yes"/>
      <point x="94" y="712"/>
      <point x="29" y="647"/>
      <point x="29" y="566" type="curve" smooth="yes"/>
      <point x="29" y="486"/>
      <point x="94" y="421"/>
      <point x="175" y="421" type="curve" smooth="yes"/>
      <point x="255" y="421"/>
      <point x="320" y="486"/>
      <point x="320" y="566" type="curve" smooth="yes"/>
      <point x="320" y="647"/>
      <point x="255" y="712"/>
    </contour>
    <contour>
      <point x="175" y="661" type="curve" smooth="yes"/>
      <point x="226" y="661"/>
      <point x="269" y="618"/>
      <point x="269" y="566" type="curve" smooth="yes"/>
      <point x="269" y="515"/>
      <point x="226" y="472"/>
      <point x="175" y="472" type="curve" smooth="yes"/>
      <point x="123" y="472"/>
      <point x="80" y="515"/>
      <point x="80" y="566" type="curve" smooth="yes"/>
      <point x="80" y="618"/>
      <point x="123" y="661"/>
    </contour>
    <contour>
      <point x="534" y="276" type="curve" smooth="yes"/>
      <point x="455" y="276"/>
      <point x="390" y="211"/>
      <point x="390" y="131" type="curve" smooth="yes"/>
      <point x="390" y="51"/>
      <point x="455" y="-14"/>
      <point x="534" y="-14" type="curve" smooth="yes"/>
      <point x="615" y="-14"/>
      <point x="679" y="51"/>
      <point x="679" y="131" type="curve" smooth="yes"/>
      <point x="679" y="211"/>
      <point x="615" y="276"/>
    </contour>
    <contour>
      <point x="534" y="226" type="curve" smooth="yes"/>
      <point x="587" y="226"/>
      <point x="629" y="184"/>
      <point x="629" y="131" type="curve" smooth="yes"/>
      <point x="629" y="79"/>
      <point x="587" y="37"/>
      <point x="534" y="37" type="curve" smooth="yes"/>
      <point x="483" y="37"/>
      <point x="441" y="79"/>
      <point x="441" y="131" type="curve" smooth="yes"/>
      <point x="441" y="184"/>
      <point x="483" y="226"/>
    </contour>
  </outline>
</glyph>
<glyph name="parenleft" format="1">
  <advance width="181"/>
  <unicode hex="0028"/>
  <outline>
    <contour>
      <point x="164" y="778" type="curve"/>
      <point x="146" y="815" type="line"/>
      <point x="76" y="777"/>
      <point x="41" y="725"/>
      <point x="41" y="625" type="curve" smooth="yes"/>
      <point x="41" y="70" type="line" smooth="yes"/>
      <point x="41" y="-58"/>
      <point x="95" y="-81"/>
      <point x="146" y="-119" type="curve"/>
      <point x="164" y="-81" type="line"/>
      <point x="119" y="-48"/>
      <point x="97" y="-1"/>
      <point x="97" y="62" type="curve" smooth="yes"/>
      <point x="97" y="253"/>
      <point x="97" y="443"/>
      <point x="97" y="635" type="curve" smooth="yes"/>
      <point x="97" y="697"/>
      <point x="119" y="745"/>
    </contour>
  </outline>
</glyph>
<glyph name="parenright" format="1">
  <advance width="182"/>
  <unicode hex="0029"/>
  <outline>
    <contour>
      <point x="17" y="778" type="curve"/>
      <point x="36" y="815" type="line"/>
      <point x="105" y="777"/>
      <point x="140" y="725"/>
      <point x="140" y="625" type="curve" smooth="yes"/>
      <point x="140" y="70" type="line" smooth="yes"/>
      <point x="140" y="-58"/>
      <point x="87" y="-81"/>
      <point x="36" y="-119" type="curve"/>
      <point x="17" y="-81" type="line"/>
      <point x="62" y="-48"/>
      <point x="84" y="-1"/>
      <point x="84" y="62" type="curve" smooth="yes"/>
      <point x="84" y="253"/>
      <point x="84" y="443"/>
      <point x="84" y="635" type="curve" smooth="yes"/>
      <point x="84" y="697"/>
      <point x="62" y="745"/>
    </contour>
  </outline>
</glyph>
<glyph name="comma" format="1">
  <advance width="138"/>
  <unicode hex="002C"/>
  <outline>
    <contour>
      <point x="34" y="-85" type="curve"/>
      <point x="51" y="-97" type="line"/>
      <point x="71" y="-79"/>
      <point x="103" y="-40"/>
      <point x="104" y="23" type="curve"/>
      <point x="103" y="43"/>
      <point x="89" y="56"/>
      <point x="70" y="56" type="curve" smooth="yes"/>
      <point x="51" y="56"/>
      <point x="37" y="42"/>
      <point x="37" y="23" type="curve" smooth="yes"/>
      <point x="37" y="7"/>
      <point x="49" y="-7"/>
      <point x="65" y="-10" type="curve"/>
      <point x="62" y="-31"/>
      <point x="55" y="-58"/>
    </contour>
  </outline>
</glyph>
<glyph name="hyphen" format="1">
  <advance width="391"/>
  <unicode hex="002D"/>
  <outline>
    <contour>
      <point x="34" y="355" type="line"/>
      <point x="353" y="355" type="line"/>
      <point x="353" y="413" type="line"/>
      <point x="34" y="413" type="line"/>
    </contour>
  </outline>
</glyph>
<glyph name="period" format="1">
  <advance width="136"/>
  <unicode hex="002E"/>
  <outline>
    <contour>
      <point x="68" y="57" type="curve" smooth="yes"/>
      <point x="50" y="57"/>
      <point x="35" y="43"/>
      <point x="35" y="24" type="curve" smooth="yes"/>
      <point x="35" y="5"/>
      <point x="50" y="-9"/>
      <point x="68" y="-9" type="curve" smooth="yes"/>
      <point x="86" y="-9"/>
      <point x="102" y="5"/>
      <point x="102" y="24" type="curve" smooth="yes"/>
      <point x="102" y="43"/>
      <point x="86" y="57"/>
    </contour>
  </outline>
</glyph>
<glyph name="slash" format="1">
  <advance width="414"/>
  <unicode hex="002F"/>
  <outline>
    <contour>
      <point x="18" y="-113" type="line"/>
      <point x="74" y="-113" type="line"/>
      <point x="398" y="815" type="line"/>
      <point x="337" y="815" type="line"/>
    </contour>
  </outline>
</glyph>
<glyph name="zero" format="1">
  <advance width="490"/>
  <unicode hex="0030"/>
  <outline>
    <contour>
      <point x="34" y="506" type="curve" smooth="yes"/>
      <point x="34" y="185" type="line" smooth="yes"/>
      <point x="34" y="56"/>
      <point x="127" y="-11"/>
      <point x="245" y="-11" type="curve" smooth="yes"/>
      <point x="368" y="-11"/>
      <point x="454" y="64"/>
      <point x="454" y="185" type="curve" smooth="yes"/>
      <point x="454" y="505" type="line" smooth="yes"/>
      <point x="454" y="635"/>
      <point x="378" y="714"/>
      <point x="246" y="714" type="curve" smooth="yes"/>
      <point x="114" y="714"/>
      <point x="34" y="642"/>
    </contour>
    <contour>
      <point x="90" y="186" type="curve" smooth="yes"/>
      <point x="90" y="515" type="line" smooth="yes"/>
      <point x="90" y="612"/>
      <point x="151" y="661"/>
      <point x="243" y="661" type="curve" smooth="yes"/>
      <point x="337" y="661"/>
      <point x="399" y="612"/>
      <point x="399" y="515" type="curve" smooth="yes"/>
      <point x="399" y="186" type="line" smooth="yes"/>
      <point x="399" y="88"/>
      <point x="335" y="42"/>
      <point x="243" y="42" type="curve" smooth="yes"/>
      <point x="155" y="42"/>
      <point x="90" y="90"/>
    </contour>
  </outline>
</glyph>
<glyph name="three" format="1">
  <advance width="442"/>
  <unicode hex="0033"/>
  <outline>
    <contour>
      <point x="202" y="413" type="curve" smooth="yes"/>
      <point x="200" y="413" type="line"/>
      <point x="359" y="649" type="line"/>
      <point x="359" y="698" type="line"/>
      <point x="70" y="698" type="line"/>
      <point x="70" y="641" type="line"/>
      <point x="291" y="641" type="line"/>
      <point x="98" y="355" type="line"/>
      <point x="209" y="355" type="line" smooth="yes"/>
      <point x="250" y="355"/>
      <point x="285" y="339"/>
      <point x="315" y="307" type="curve" smooth="yes"/>
      <point x="344" y="277"/>
      <point x="358" y="242"/>
      <point x="358" y="199" type="curve" smooth="yes"/>
      <point x="358" y="156"/>
      <point x="344" y="121"/>
      <point x="313" y="90" type="curve" smooth="yes"/>
      <point x="282" y="58"/>
      <point x="245" y="44"/>
      <point x="202" y="44" type="curve" smooth="yes"/>
      <point x="146" y="44"/>
      <point x="103" y="67"/>
      <point x="72" y="112" type="curve"/>
      <point x="26" y="82" type="line"/>
      <point x="64" y="24"/>
      <point x="130" y="-12"/>
      <point x="202" y="-12" type="curve" smooth="yes"/>
      <point x="261" y="-12"/>
      <point x="312" y="9"/>
      <point x="353" y="50" type="curve" smooth="yes"/>
      <point x="393" y="90"/>
      <point x="414" y="141"/>
      <point x="414" y="199" type="curve" smooth="yes"/>
      <point x="414" y="258"/>
      <point x="393" y="309"/>
      <point x="353" y="350" type="curve" smooth="yes"/>
      <point x="312" y="391"/>
      <point x="261" y="413"/>
    </contour>
  </outline>
</glyph>
<glyph name="nine" format="1">
  <advance width="480"/>
  <unicode hex="0039"/>
  <outline>
    <contour>
      <point x="235" y="707" type="curve" smooth="yes"/>
      <point x="175" y="707"/>
      <point x="126" y="686"/>
      <point x="85" y="646" type="curve" smooth="yes"/>
      <point x="44" y="605"/>
      <point x="23" y="554"/>
      <point x="23" y="495" type="curve" smooth="yes"/>
      <point x="23" y="437"/>
      <point x="44" y="386"/>
      <point x="85" y="345" type="curve" smooth="yes"/>
      <point x="126" y="305"/>
      <point x="176" y="284"/>
      <point x="238" y="284" type="curve" smooth="yes"/>
      <point x="298" y="284"/>
      <point x="350" y="307"/>
      <point x="392" y="352" type="curve"/>
      <point x="392" y="245" type="line" smooth="yes"/>
      <point x="392" y="182"/>
      <point x="374" y="135"/>
      <point x="337" y="102" type="curve" smooth="yes"/>
      <point x="301" y="70"/>
      <point x="258" y="54"/>
      <point x="207" y="54" type="curve" smooth="yes"/>
      <point x="169" y="54" type="line"/>
      <point x="169" y="-1" type="line"/>
      <point x="204" y="-1" type="line" smooth="yes"/>
      <point x="292" y="-1"/>
      <point x="361" y="34"/>
      <point x="396" y="84" type="curve" smooth="yes"/>
      <point x="431" y="131"/>
      <point x="447" y="183"/>
      <point x="447" y="238" type="curve" smooth="yes"/>
      <point x="447" y="495" type="line" smooth="yes"/>
      <point x="447" y="554"/>
      <point x="426" y="605"/>
      <point x="385" y="646" type="curve" smooth="yes"/>
      <point x="345" y="686"/>
      <point x="293" y="707"/>
    </contour>
    <contour>
      <point x="235" y="652" type="curve" smooth="yes"/>
      <point x="322" y="652"/>
      <point x="392" y="582"/>
      <point x="392" y="495" type="curve" smooth="yes"/>
      <point x="392" y="409"/>
      <point x="322" y="339"/>
      <point x="235" y="339" type="curve" smooth="yes"/>
      <point x="148" y="339"/>
      <point x="79" y="409"/>
      <point x="79" y="495" type="curve" smooth="yes"/>
      <point x="79" y="582"/>
      <point x="148" y="652"/>
    </contour>
  </outline>
</glyph>
<glyph name="semicolon" format="1">
  <advance width="149"/>
  <unicode hex="003B"/>
  <outline>
    <contour>
      <point x="38" y="35" type="curve"/>
      <point x="55" y="23" type="line"/>
      <point x="75" y="41"/>
      <point x="107" y="80"/>
      <point x="108" y="143" type="curve"/>
      <point x="107" y="163"/>
      <point x="93" y="176"/>
      <point x="74" y="176" type="curve" smooth="yes"/>
      <point x="55" y="176"/>
      <point x="41" y="162"/>
      <point x="41" y="143" type="curve" smooth="yes"/>
      <point x="41" y="127"/>
      <point x="53" y="112"/>
      <point x="69" y="110" type="curve"/>
      <point x="66" y="89"/>
      <point x="59" y="62"/>
    </contour>
    <contour>
      <point x="110" y="384" type="curve" smooth="yes"/>
      <point x="110" y="403"/>
      <point x="95" y="417"/>
      <point x="77" y="417" type="curve" smooth="yes"/>
      <point x="59" y="417"/>
      <point x="43" y="403"/>
      <point x="43" y="384" type="curve" smooth="yes"/>
      <point x="43" y="365"/>
      <point x="59" y="351"/>
      <point x="77" y="351" type="curve" smooth="yes"/>
      <point x="95" y="351"/>
      <point x="110" y="365"/>
    </contour>
  </outline>
</glyph>
<glyph name="equal" format="1">
  <advance width="390"/>
  <unicode hex="003D"/>
  <outline>
    <contour>
      <point x="34" y="356" type="line"/>
      <point x="353" y="356" type="line"/>
      <point x="353" y="411" type="line"/>
      <point x="34" y="411" type="line"/>
    </contour>
    <contour>
      <point x="34" y="252" type="line"/>
      <point x="353" y="252" type="line"/>
      <point x="353" y="307" type="line"/>
      <point x="34" y="307" type="line"/>
    </contour>
  </outline>
</glyph>
<glyph name="F" format="1">
  <advance width="390"/>
  <unicode hex="0046"/>
  <outline>
    <contour>
      <point x="374" y="698" type="line"/>
      <point x="41" y="698" type="line"/>
      <point x="41" y="0" type="line"/>
      <point x="97" y="0" type="line"/>
      <point x="97" y="356" type="line"/>
      <point x="265" y="356" type="line"/>
      <point x="288" y="411" type="line"/>
      <point x="97" y="411" type="line"/>
      <point x="97" y="645" type="line"/>
      <point x="374" y="645" type="line"/>
    </contour>
  </outline>
</glyph>
<glyph name="J" format="1">
  <advance width="206"/>
  <unicode hex="004A"/>
  <outline>
    <contour>
      <point x="165" y="118" type="curve" smooth="yes"/>
      <point x="165" y="698" type="line"/>
      <point x="42" y="698" type="line"/>
      <point x="42" y="649" type="line"/>
      <point x="108" y="647" type="line"/>
      <point x="108" y="113" type="line" smooth="yes"/>
      <point x="108" y="34"/>
      <point x="71" y="0"/>
      <point x="27" y="0" type="curve"/>
      <point x="40" y="-37" type="line"/>
      <point x="83" y="-37"/>
      <point x="116" y="-21"/>
      <point x="137" y="10" type="curve" smooth="yes"/>
      <point x="156" y="36"/>
      <point x="165" y="73"/>
    </contour>
  </outline>
</glyph>
<glyph name="T" format="1">
  <advance width="416"/>
  <unicode hex="0054"/>
  <outline>
    <contour>
      <point x="232" y="648" type="line"/>
      <point x="408" y="648" type="line"/>
      <point x="408" y="698" type="line"/>
      <point x="7" y="698" type="line"/>
      <point x="7" y="648" type="line"/>
      <point x="177" y="648" type="line"/>
      <point x="177" y="0" type="line"/>
      <point x="232" y="0" type="line"/>
    </contour>
  </outline>
</glyph>
<glyph name="U" format="1">
  <advance width="496"/>
  <unicode hex="0055"/>
  <outline>
    <contour>
      <point x="456" y="185" type="curve" smooth="yes"/>
      <point x="456" y="698" type="line"/>
      <point x="401" y="698" type="line"/>
      <point x="401" y="186" type="line" smooth="yes"/>
      <point x="401" y="140"/>
      <point x="386" y="106"/>
      <point x="362" y="81" type="curve" smooth="yes"/>
      <point x="335" y="54"/>
      <point x="295" y="42"/>
      <point x="247" y="42" type="curve" smooth="yes"/>
      <point x="205" y="42"/>
      <point x="167" y="53"/>
      <point x="141" y="74" type="curve" smooth="yes"/>
      <point x="110" y="98"/>
      <point x="93" y="135"/>
      <point x="93" y="186" type="curve" smooth="yes"/>
      <point x="93" y="698" type="line"/>
      <point x="38" y="698" type="line"/>
      <point x="38" y="185" type="line" smooth="yes"/>
      <point x="38" y="118"/>
      <point x="59" y="68"/>
      <point x="99" y="36" type="curve" smooth="yes"/>
      <point x="141" y="4"/>
      <point x="191" y="-11"/>
      <point x="248" y="-11" type="curve" smooth="yes"/>
      <point x="304" y="-11"/>
      <point x="353" y="4"/>
      <point x="394" y="36" type="curve" smooth="yes"/>
      <point x="435" y="68"/>
      <point x="456" y="118"/>
    </contour>
  </outline>
</glyph>
<glyph name="Y" format="1">
  <advance width="513"/>
  <unicode hex="0059"/>
  <outline>
    <contour>
      <point x="472" y="155" type="curve" smooth="yes"/>
      <point x="472" y="698" type="line"/>
      <point x="416" y="698" type="line"/>
      <point x="416" y="422" type="line" smooth="yes"/>
      <point x="416" y="380"/>
      <point x="391" y="339"/>
      <point x="352" y="319" type="curve" smooth="yes"/>
      <point x="325" y="306"/>
      <point x="290" y="299"/>
      <point x="249" y="299" type="curve" smooth="yes"/>
      <point x="205" y="299"/>
      <point x="165" y="310"/>
      <point x="132" y="334" type="curve"/>
      <point x="100" y="360"/>
      <point x="86" y="395"/>
      <point x="86" y="451" type="curve" smooth="yes"/>
      <point x="86" y="698" type="line"/>
      <point x="30" y="698" type="line"/>
      <point x="30" y="462" type="line" smooth="yes"/>
      <point x="30" y="381"/>
      <point x="50" y="330"/>
      <point x="92" y="295" type="curve" smooth="yes"/>
      <point x="132" y="260"/>
      <point x="188" y="241"/>
      <point x="259" y="244" type="curve" smooth="yes"/>
      <point x="349" y="250"/>
      <point x="398" y="285"/>
      <point x="416" y="305" type="curve"/>
      <point x="416" y="152" type="line" smooth="yes"/>
      <point x="416" y="86"/>
      <point x="396" y="45"/>
      <point x="355" y="30" type="curve"/>
      <point x="368" y="-7" type="line"/>
      <point x="435" y="2"/>
      <point x="472" y="58"/>
    </contour>
  </outline>
</glyph>
<glyph name="Z" format="1">
  <advance width="545"/>
  <unicode hex="005A"/>
  <outline>
    <contour>
      <point x="509" y="698" type="line"/>
      <point x="41" y="698" type="line"/>
      <point x="41" y="647" type="line"/>
      <point x="437" y="647" type="line"/>
      <point x="29" y="50" type="line"/>
      <point x="29" y="0" type="line"/>
      <point x="514" y="0" type="line"/>
      <point x="514" y="51" type="line"/>
      <point x="99" y="51" type="line"/>
      <point x="509" y="648" type="line"/>
    </contour>
  </outline>
</glyph>
<glyph name="bracketright" format="1">
  <advance width="224"/>
  <unicode hex="005D"/>
  <outline>
    <contour>
      <point x="20" y="-113" type="line"/>
      <point x="181" y="-113" type="line"/>
      <point x="181" y="815" type="line"/>
      <point x="20" y="815" type="line"/>
      <point x="20" y="770" type="line"/>
      <point x="125" y="760" type="line"/>
      <point x="125" y="-59" type="line"/>
      <point x="20" y="-69" type="line"/>
    </contour>
  </outline>
</glyph>
<glyph name="b" format="1">
  <advance width="455"/>
  <unicode hex="0062"/>
  <outline>
    <contour>
      <point x="97" y="471" type="curve"/>
      <point x="97" y="698" type="line"/>
      <point x="41" y="698" type="line"/>
      <point x="41" y="0" type="line"/>
      <point x="41" y="0"/>
      <point x="149" y="-9"/>
      <point x="198" y="-10" type="curve" smooth="yes"/>
      <point x="327" y="-14"/>
      <point x="425" y="21"/>
      <point x="425" y="168" type="curve" smooth="yes"/>
      <point x="425" y="231"/>
      <point x="425" y="295"/>
      <point x="425" y="358" type="curve" smooth="yes"/>
      <point x="425" y="470"/>
      <point x="339" y="508"/>
      <point x="259" y="508" type="curve" smooth="yes"/>
      <point x="194" y="508"/>
      <point x="142" y="491"/>
    </contour>
    <contour>
      <point x="97" y="46" type="curve"/>
      <point x="97" y="172"/>
      <point x="97" y="297"/>
      <point x="97" y="422" type="curve"/>
      <point x="151" y="444"/>
      <point x="199" y="461"/>
      <point x="263" y="461" type="curve" smooth="yes"/>
      <point x="301" y="461"/>
      <point x="370" y="446"/>
      <point x="370" y="354" type="curve" smooth="yes"/>
      <point x="370" y="332"/>
      <point x="370" y="195"/>
      <point x="370" y="175" type="curve" smooth="yes"/>
      <point x="370" y="80"/>
      <point x="336" y="33"/>
      <point x="203" y="38" type="curve" smooth="yes"/>
      <point x="138" y="42"/>
      <point x="97" y="46"/>
    </contour>
  </outline>
</glyph>
<glyph name="d" format="1">
  <advance width="456"/>
  <unicode hex="0064"/>
  <outline>
    <contour>
      <point x="413" y="0" type="curve"/>
      <point x="413" y="698" type="line"/>
      <point x="358" y="698" type="line"/>
      <point x="358" y="471" type="line"/>
      <point x="312" y="491"/>
      <point x="260" y="508"/>
      <point x="195" y="508" type="curve" smooth="yes"/>
      <point x="115" y="508"/>
      <point x="29" y="470"/>
      <point x="29" y="358" type="curve" smooth="yes"/>
      <point x="29" y="295"/>
      <point x="29" y="231"/>
      <point x="29" y="168" type="curve" smooth="yes"/>
      <point x="29" y="21"/>
      <point x="128" y="-14"/>
      <point x="257" y="-10" type="curve" smooth="yes"/>
      <point x="305" y="-9"/>
      <point x="413" y="0"/>
    </contour>
    <contour>
      <point x="358" y="422" type="curve"/>
      <point x="358" y="297"/>
      <point x="358" y="172"/>
      <point x="358" y="46" type="curve"/>
      <point x="358" y="46"/>
      <point x="316" y="42"/>
      <point x="252" y="38" type="curve" smooth="yes"/>
      <point x="119" y="33"/>
      <point x="84" y="80"/>
      <point x="84" y="175" type="curve" smooth="yes"/>
      <point x="84" y="195"/>
      <point x="84" y="332"/>
      <point x="84" y="354" type="curve" smooth="yes"/>
      <point x="84" y="446"/>
      <point x="154" y="461"/>
      <point x="191" y="461" type="curve" smooth="yes"/>
      <point x="255" y="461"/>
      <point x="304" y="444"/>
    </contour>
  </outline>
</glyph>
<glyph name="i" format="1">
  <advance width="150"/>
  <unicode hex="0069"/>
  <outline>
    <contour>
      <point x="46" y="0" type="line"/>
      <point x="102" y="0" type="line"/>
      <point x="102" y="499" type="line"/>
      <point x="46" y="499" type="line"/>
    </contour>
    <contour>
      <point x="75" y="708" type="curve" smooth="yes"/>
      <point x="56" y="708"/>
      <point x="41" y="693"/>
      <point x="41" y="674" type="curve" smooth="yes"/>
      <point x="41" y="656"/>
      <point x="56" y="641"/>
      <point x="75" y="641" type="curve" smooth="yes"/>
      <point x="92" y="641"/>
      <point x="108" y="656"/>
      <point x="108" y="674" type="curve" smooth="yes"/>
      <point x="108" y="693"/>
      <point x="92" y="708"/>
    </contour>
  </outline>
</glyph>
<glyph name="p" format="1">
  <advance width="441"/>
  <unicode hex="0070"/>
  <outline>
    <contour>
      <point x="408" y="175" type="curve" smooth="yes"/>
      <point x="408" y="345" type="line" smooth="yes"/>
      <point x="408" y="450"/>
      <point x="348" y="513"/>
      <point x="238" y="508" type="curve" smooth="yes"/>
      <point x="189" y="506"/>
      <point x="139" y="487"/>
      <point x="96" y="451" type="curve"/>
      <point x="96" y="498" type="line"/>
      <point x="39" y="498" type="line"/>
      <point x="39" y="-199" type="line"/>
      <point x="96" y="-212" type="line"/>
      <point x="96" y="61" type="line"/>
      <point x="119" y="20"/>
      <point x="176" y="-12"/>
      <point x="238" y="-12" type="curve" smooth="yes"/>
      <point x="349" y="-12"/>
      <point x="408" y="53"/>
    </contour>
    <contour>
      <point x="351" y="342" type="curve" smooth="yes"/>
      <point x="351" y="166" type="line" smooth="yes"/>
      <point x="351" y="82"/>
      <point x="309" y="40"/>
      <point x="235" y="40" type="curve" smooth="yes"/>
      <point x="158" y="40"/>
      <point x="96" y="88"/>
      <point x="96" y="173" type="curve" smooth="yes"/>
      <point x="96" y="392" type="line"/>
      <point x="126" y="433"/>
      <point x="182" y="454"/>
      <point x="226" y="458" type="curve" smooth="yes"/>
      <point x="290" y="463"/>
      <point x="351" y="432"/>
    </contour>
  </outline>
</glyph>
<glyph name="z" format="1">
  <advance width="427"/>
  <unicode hex="007A"/>
  <outline>
    <contour>
      <point x="377" y="499" type="line"/>
      <point x="40" y="499" type="line"/>
      <point x="40" y="449" type="line"/>
      <point x="305" y="449" type="line"/>
      <point x="31" y="50" type="line"/>
      <point x="31" y="0" type="line"/>
      <point x="398" y="0" type="line"/>
      <point x="398" y="51" type="line"/>
      <point x="100" y="51" type="line"/>
      <point x="377" y="450" type="line"/>
    </contour>
  </outline>
</glyph>
<glyph name="braceleft" format="1">
  <advance width="257"/>
  <unicode hex="007B"/>
  <outline>
    <contour>
      <point x="162" y="515" type="curve" smooth="yes"/>
      <point x="162" y="628" type="line" smooth="yes"/>
      <point x="162" y="717"/>
      <point x="207" y="757"/>
      <point x="237" y="772" type="curve"/>
      <point x="215" y="820" type="line"/>
      <point x="211" y="818"/>
      <point x="105" y="789"/>
      <point x="105" y="628" type="curve" smooth="yes"/>
      <point x="105" y="515" type="line" smooth="yes"/>
      <point x="105" y="459"/>
      <point x="99" y="408"/>
      <point x="36" y="360" type="curve" smooth="yes"/>
      <point x="25" y="352" type="line"/>
      <point x="36" y="344" type="line" smooth="yes"/>
      <point x="99" y="295"/>
      <point x="105" y="245"/>
      <point x="105" y="189" type="curve" smooth="yes"/>
      <point x="105" y="76" type="line" smooth="yes"/>
      <point x="105" y="-85"/>
      <point x="209" y="-114"/>
      <point x="215" y="-117" type="curve"/>
      <point x="238" y="-67" type="line"/>
      <point x="207" y="-52"/>
      <point x="162" y="-13"/>
      <point x="162" y="76" type="curve" smooth="yes"/>
      <point x="162" y="189" type="line" smooth="yes"/>
      <point x="162" y="245"/>
      <point x="157" y="300"/>
      <point x="95" y="352" type="curve"/>
      <point x="157" y="404"/>
      <point x="162" y="459"/>
    </contour>
  </outline>
</glyph>
<glyph name="braceright" format="1">
  <advance width="262"/>
  <unicode hex="007D"/>
  <outline>
    <contour>
      <point x="43" y="820" type="curve"/>
      <point x="21" y="772" type="line"/>
      <point x="50" y="757"/>
      <point x="96" y="717"/>
      <point x="96" y="628" type="curve" smooth="yes"/>
      <point x="96" y="515" type="line" smooth="yes"/>
      <point x="96" y="459"/>
      <point x="101" y="404"/>
      <point x="162" y="352" type="curve"/>
      <point x="101" y="300"/>
      <point x="96" y="245"/>
      <point x="96" y="189" type="curve" smooth="yes"/>
      <point x="96" y="76" type="line" smooth="yes"/>
      <point x="96" y="-13"/>
      <point x="50" y="-52"/>
      <point x="20" y="-67" type="curve"/>
      <point x="42" y="-117" type="line"/>
      <point x="48" y="-114"/>
      <point x="152" y="-85"/>
      <point x="152" y="76" type="curve" smooth="yes"/>
      <point x="152" y="189" type="line" smooth="yes"/>
      <point x="152" y="245"/>
      <point x="158" y="295"/>
      <point x="222" y="344" type="curve" smooth="yes"/>
      <point x="233" y="352" type="line"/>
      <point x="222" y="360" type="line" smooth="yes"/>
      <point x="158" y="408"/>
      <point x="152" y="459"/>
      <point x="152" y="515" type="curve" smooth="yes"/>
      <point x="152" y="628" type="line" smooth="yes"/>
      <point x="152" y="789"/>
      <point x="48" y="818"/>
    </contour>
  </outline>
</glyph>
<glyph name="exclamdown" format="1">
  <advance width="147"/>
  <unicode hex="00A1"/>
  <outline>
    <contour>
      <point x="106" y="36" type="curve" smooth="yes"/>
      <point x="97" y="588" type="line"/>
      <point x="50" y="588" type="line"/>
      <point x="40" y="37" type="line"/>
      <point x="40" y="12"/>
      <point x="51" y="0"/>
      <point x="73" y="0" type="curve" smooth="yes"/>
      <point x="95" y="0"/>
      <point x="106" y="12"/>
    </contour>
    <contour>
      <point x="106" y="674" type="curve" smooth="yes"/>
      <point x="106" y="693"/>
      <point x="92" y="707"/>
      <point x="73" y="707" type="curve" smooth="yes"/>
      <point x="54" y="707"/>
      <point x="39" y="693"/>
      <point x="39" y="674" type="curve" smooth="yes"/>
      <point x="39" y="656"/>
      <point x="54" y="641"/>
      <point x="73" y="641" type="curve" smooth="yes"/>
      <point x="92" y="641"/>
      <point x="106" y="656"/>
    </contour>
  </outline>
</glyph>
<glyph name="sterling" format="1">
  <advance width="427"/>
  <unicode hex="00A3"/>
  <outline>
    <contour>
      <point x="113" y="53" type="curve" smooth="yes"/>
      <point x="34" y="53" type="line"/>
      <point x="34" y="0" type="line"/>
      <point x="392" y="0" type="line"/>
      <point x="392" y="53" type="line"/>
      <point x="270" y="53" type="line"/>
      <point x="287" y="64"/>
      <point x="300" y="77"/>
      <point x="311" y="94" type="curve" smooth="yes"/>
      <point x="360" y="167"/>
      <point x="348" y="254"/>
      <point x="289" y="324" type="curve" smooth="yes"/>
      <point x="285" y="329"/>
      <point x="281" y="334"/>
      <point x="277" y="339" type="curve"/>
      <point x="392" y="339" type="line"/>
      <point x="392" y="396" type="line"/>
      <point x="226" y="396" type="line"/>
      <point x="205" y="419"/>
      <point x="186" y="441"/>
      <point x="176" y="453" type="curve" smooth="yes"/>
      <point x="131" y="506"/>
      <point x="104" y="559"/>
      <point x="132" y="605" type="curve"/>
      <point x="149" y="637"/>
      <point x="179" y="651"/>
      <point x="212" y="654" type="curve" smooth="yes"/>
      <point x="253" y="659"/>
      <point x="299" y="645"/>
      <point x="341" y="620" type="curve"/>
      <point x="360" y="669" type="line"/>
      <point x="308" y="697"/>
      <point x="247" y="712"/>
      <point x="194" y="705" type="curve" smooth="yes"/>
      <point x="149" y="700"/>
      <point x="108" y="680"/>
      <point x="83" y="635" type="curve" smooth="yes"/>
      <point x="39" y="555"/>
      <point x="77" y="485"/>
      <point x="134" y="419" type="curve" smooth="yes"/>
      <point x="138" y="414"/>
      <point x="145" y="405"/>
      <point x="154" y="396" type="curve"/>
      <point x="34" y="396" type="line"/>
      <point x="34" y="339" type="line"/>
      <point x="205" y="339" type="line"/>
      <point x="220" y="323"/>
      <point x="233" y="307"/>
      <point x="247" y="291" type="curve" smooth="yes"/>
      <point x="297" y="234"/>
      <point x="297" y="168"/>
      <point x="260" y="118" type="curve" smooth="yes"/>
      <point x="221" y="61"/>
      <point x="160" y="53"/>
    </contour>
  </outline>
</glyph>
<glyph name="copyright" format="1">
  <advance width="694"/>
  <unicode hex="00A9"/>
  <outline>
    <contour>
      <point x="662" y="187" type="curve" smooth="yes"/>
      <point x="662" y="326" type="line" smooth="yes"/>
      <point x="662" y="496"/>
      <point x="530" y="581"/>
      <point x="346" y="582" type="curve" smooth="yes"/>
      <point x="163" y="581"/>
      <point x="31" y="496"/>
      <point x="31" y="326" type="curve" smooth="yes"/>
      <point x="31" y="187" type="line" smooth="yes"/>
      <point x="31" y="16"/>
      <point x="163" y="-68"/>
      <point x="346" y="-69" type="curve" smooth="yes"/>
      <point x="530" y="-68"/>
      <point x="662" y="16"/>
    </contour>
    <contour>
      <point x="603" y="301" type="curve" smooth="yes"/>
      <point x="603" y="211" type="line" smooth="yes"/>
      <point x="603" y="48"/>
      <point x="521" y="-13"/>
      <point x="346" y="-15" type="curve" smooth="yes"/>
      <point x="171" y="-13"/>
      <point x="90" y="48"/>
      <point x="90" y="211" type="curve" smooth="yes"/>
      <point x="90" y="301" type="line" smooth="yes"/>
      <point x="90" y="464"/>
      <point x="171" y="526"/>
      <point x="346" y="528" type="curve" smooth="yes"/>
      <point x="521" y="526"/>
      <point x="603" y="464"/>
    </contour>
    <contour>
      <point x="485" y="383" type="curve"/>
      <point x="501" y="420" type="line"/>
      <point x="459" y="442"/>
      <point x="410" y="453"/>
      <point x="359" y="453" type="curve" smooth="yes"/>
      <point x="319" y="453"/>
      <point x="282" y="446"/>
      <point x="253" y="428" type="curve" smooth="yes"/>
      <point x="195" y="393"/>
      <point x="166" y="337"/>
      <point x="166" y="249" type="curve" smooth="yes"/>
      <point x="166" y="165"/>
      <point x="199" y="110"/>
      <point x="247" y="82" type="curve"/>
      <point x="296" y="58"/>
      <point x="343" y="58"/>
      <point x="364" y="58" type="curve" smooth="yes"/>
      <point x="416" y="58"/>
      <point x="470" y="68"/>
      <point x="526" y="90" type="curve"/>
      <point x="514" y="137" type="line"/>
      <point x="457" y="118"/>
      <point x="409" y="108"/>
      <point x="369" y="108" type="curve" smooth="yes"/>
      <point x="323" y="108"/>
      <point x="291" y="117"/>
      <point x="268" y="133" type="curve" smooth="yes"/>
      <point x="234" y="158"/>
      <point x="223" y="202"/>
      <point x="223" y="254" type="curve" smooth="yes"/>
      <point x="223" y="310"/>
      <point x="240" y="352"/>
      <point x="274" y="376" type="curve" smooth="yes"/>
      <point x="299" y="394"/>
      <point x="333" y="404"/>
      <point x="377" y="404" type="curve" smooth="yes"/>
      <point x="411" y="404"/>
      <point x="448" y="396"/>
    </contour>
  </outline>
</glyph>
<glyph name="ordfeminine" format="1">
  <advance width="328"/>
  <unicode hex="00AA"/>
  <outline>
    <contour>
      <point x="292" y="389" type="curve"/>
      <point x="292" y="444"/>
      <point x="292" y="498"/>
      <point x="292" y="553" type="curve" smooth="yes"/>
      <point x="292" y="614"/>
      <point x="277" y="653"/>
      <point x="249" y="676" type="curve" smooth="yes"/>
      <point x="222" y="698"/>
      <point x="182" y="707"/>
      <point x="127" y="707" type="curve"/>
      <point x="123" y="664" type="line"/>
      <point x="160" y="664"/>
      <point x="192" y="661"/>
      <point x="209" y="649" type="curve"/>
      <point x="232" y="635"/>
      <point x="240" y="614"/>
      <point x="240" y="591" type="curve"/>
      <point x="196" y="616"/>
      <point x="159" y="628"/>
      <point x="128" y="629" type="curve" smooth="yes"/>
      <point x="60" y="631"/>
      <point x="23" y="583"/>
      <point x="23" y="517" type="curve" smooth="yes"/>
      <point x="23" y="410"/>
      <point x="84" y="380"/>
      <point x="171" y="378" type="curve" smooth="yes"/>
      <point x="207" y="378"/>
      <point x="248" y="383"/>
    </contour>
    <contour>
      <point x="238" y="541" type="curve"/>
      <point x="238" y="428" type="line"/>
      <point x="238" y="428"/>
      <point x="156" y="416"/>
      <point x="118" y="432" type="curve" smooth="yes"/>
      <point x="86" y="447"/>
      <point x="70" y="472"/>
      <point x="70" y="512" type="curve" smooth="yes"/>
      <point x="70" y="563"/>
      <point x="91" y="582"/>
      <point x="123" y="582" type="curve" smooth="yes"/>
      <point x="155" y="582"/>
      <point x="198" y="565"/>
    </contour>
  </outline>
</glyph>
<glyph name="sfthyphen" format="1">
  <advance width="483"/>
  <unicode hex="00AD"/>
  <outline>
    <contour>
      <point x="361" y="413" type="line"/>
      <point x="42" y="413" type="line"/>
      <point x="42" y="355" type="line"/>
      <point x="361" y="355" type="line"/>
    </contour>
  </outline>
</glyph>
<glyph name="Atilde" format="1">
  <advance width="545"/>
  <unicode hex="00C3"/>
  <outline>
    <contour>
      <point x="525" y="0" type="line"/>
      <point x="298" y="698" type="line"/>
      <point x="245" y="698" type="line"/>
      <point x="21" y="0" type="line"/>
      <point x="81" y="0" type="line"/>
      <point x="159" y="244" type="line"/>
      <point x="386" y="244" type="line"/>
      <point x="466" y="0" type="line"/>
    </contour>
    <contour>
      <point x="174" y="299" type="line"/>
      <point x="271" y="612" type="line"/>
      <point x="371" y="299" type="line"/>
    </contour>
    <contour>
      <point x="408" y="774" type="curve"/>
      <point x="387" y="822" type="line"/>
      <point x="375" y="811"/>
      <point x="354" y="802"/>
      <point x="335" y="802" type="curve" smooth="yes"/>
      <point x="321" y="802"/>
      <point x="274" y="827"/>
      <point x="226" y="827" type="curve" smooth="yes"/>
      <point x="200" y="827"/>
      <point x="171" y="820"/>
      <point x="148" y="795" type="curve"/>
      <point x="171" y="749" type="line"/>
      <point x="185" y="760"/>
      <point x="196" y="768"/>
      <point x="216" y="769" type="curve" smooth="yes"/>
      <point x="247" y="771"/>
      <point x="291" y="745"/>
      <point x="336" y="745" type="curve" smooth="yes"/>
      <point x="360" y="745"/>
      <point x="385" y="752"/>
    </contour>
  </outline>
</glyph>
<glyph name="Aring" format="1">
  <advance width="545"/>
  <unicode hex="00C5"/>
  <outline>
    <contour>
      <point x="525" y="0" type="line"/>
      <point x="299" y="698" type="line"/>
      <point x="245" y="698" type="line"/>
      <point x="21" y="0" type="line"/>
      <point x="81" y="0" type="line"/>
      <point x="159" y="244" type="line"/>
      <point x="386" y="244" type="line"/>
      <point x="466" y="0" type="line"/>
    </contour>
    <contour>
      <point x="174" y="299" type="line"/>
      <point x="271" y="612" type="line"/>
      <point x="371" y="299" type="line"/>
    </contour>
    <contour>
      <point x="272" y="660" type="curve" smooth="yes"/>
      <point x="336" y="660"/>
      <point x="387" y="711"/>
      <point x="387" y="773" type="curve" smooth="yes"/>
      <point x="387" y="836"/>
      <point x="336" y="888"/>
      <point x="272" y="888" type="curve" smooth="yes"/>
      <point x="210" y="888"/>
      <point x="159" y="836"/>
      <point x="159" y="773" type="curve" smooth="yes"/>
      <point x="159" y="711"/>
      <point x="210" y="660"/>
    </contour>
    <contour>
      <point x="343" y="773" type="curve" smooth="yes"/>
      <point x="343" y="735"/>
      <point x="311" y="704"/>
      <point x="272" y="704" type="curve" smooth="yes"/>
      <point x="234" y="704"/>
      <point x="203" y="735"/>
      <point x="203" y="773" type="curve" smooth="yes"/>
      <point x="203" y="812"/>
      <point x="234" y="844"/>
      <point x="272" y="844" type="curve" smooth="yes"/>
      <point x="311" y="844"/>
      <point x="343" y="812"/>
    </contour>
  </outline>
</glyph>
<glyph name="Egrave" format="1">
  <advance width="405"/>
  <unicode hex="00C8"/>
  <outline>
    <contour>
      <point x="41" y="0" type="line"/>
      <point x="372" y="0" type="line"/>
      <point x="372" y="50" type="line"/>
      <point x="97" y="50" type="line"/>
      <point x="97" y="356" type="line"/>
      <point x="269" y="356" type="line"/>
      <point x="287" y="411" type="line"/>
      <point x="97" y="411" type="line"/>
      <point x="97" y="646" type="line"/>
      <point x="374" y="646" type="line"/>
      <point x="374" y="698" type="line"/>
      <point x="41" y="698" type="line"/>
    </contour>
    <contour>
      <point x="137" y="822" type="curve"/>
      <point x="189" y="743" type="line"/>
      <point x="225" y="743" type="line"/>
      <point x="187" y="849" type="line"/>
      <point x="182" y="868"/>
      <point x="161" y="879"/>
      <point x="143" y="869" type="curve" smooth="yes"/>
      <point x="126" y="859"/>
      <point x="125" y="836"/>
    </contour>
  </outline>
</glyph>
<glyph name="Edieresis" format="1">
  <advance width="405"/>
  <unicode hex="00CB"/>
  <outline>
    <contour>
      <point x="41" y="0" type="line"/>
      <point x="372" y="0" type="line"/>
      <point x="372" y="50" type="line"/>
      <point x="97" y="50" type="line"/>
      <point x="97" y="356" type="line"/>
      <point x="269" y="356" type="line"/>
      <point x="287" y="411" type="line"/>
      <point x="97" y="411" type="line"/>
      <point x="97" y="646" type="line"/>
      <point x="374" y="646" type="line"/>
      <point x="374" y="698" type="line"/>
      <point x="41" y="698" type="line"/>
    </contour>
    <contour>
      <point x="320" y="802" type="curve" smooth="yes"/>
      <point x="320" y="821"/>
      <point x="305" y="835"/>
      <point x="286" y="835" type="curve" smooth="yes"/>
      <point x="269" y="835"/>
      <point x="253" y="821"/>
      <point x="253" y="802" type="curve" smooth="yes"/>
      <point x="253" y="783"/>
      <point x="269" y="768"/>
      <point x="286" y="768" type="curve" smooth="yes"/>
      <point x="305" y="768"/>
      <point x="320" y="783"/>
    </contour>
    <contour>
      <point x="162" y="802" type="curve" smooth="yes"/>
      <point x="162" y="821"/>
      <point x="148" y="835"/>
      <point x="129" y="835" type="curve" smooth="yes"/>
      <point x="110" y="835"/>
      <point x="95" y="821"/>
      <point x="95" y="802" type="curve" smooth="yes"/>
      <point x="95" y="783"/>
      <point x="110" y="768"/>
      <point x="129" y="768" type="curve" smooth="yes"/>
      <point x="148" y="768"/>
      <point x="162" y="783"/>
    </contour>
  </outline>
</glyph>
<glyph name="Igrave" format="1">
  <advance width="213"/>
  <unicode hex="00CC"/>
  <outline>
    <contour>
      <point x="20" y="649" type="line"/>
      <point x="87" y="647" type="line"/>
      <point x="87" y="0" type="line"/>
      <point x="143" y="0" type="line"/>
      <point x="143" y="698" type="line"/>
      <point x="20" y="698" type="line"/>
    </contour>
    <contour>
      <point x="134" y="847" type="curve"/>
      <point x="95" y="740" type="line"/>
      <point x="130" y="740" type="line"/>
      <point x="184" y="820" type="line"/>
      <point x="196" y="834"/>
      <point x="195" y="857"/>
      <point x="177" y="867" type="curve" smooth="yes"/>
      <point x="160" y="877"/>
      <point x="139" y="866"/>
    </contour>
  </outline>
</glyph>
<glyph name="Oacute" format="1">
  <advance width="490"/>
  <unicode hex="00D3"/>
  <outline>
    <contour>
      <point x="34" y="506" type="curve" smooth="yes"/>
      <point x="34" y="185" type="line" smooth="yes"/>
      <point x="34" y="56"/>
      <point x="127" y="-11"/>
      <point x="245" y="-11" type="curve" smooth="yes"/>
      <point x="368" y="-11"/>
      <point x="454" y="64"/>
      <point x="454" y="185" type="curve" smooth="yes"/>
      <point x="454" y="505" type="line" smooth="yes"/>
      <point x="454" y="635"/>
      <point x="378" y="714"/>
      <point x="246" y="714" type="curve" smooth="yes"/>
      <point x="114" y="714"/>
      <point x="34" y="642"/>
    </contour>
    <contour>
      <point x="90" y="186" type="curve" smooth="yes"/>
      <point x="90" y="515" type="line" smooth="yes"/>
      <point x="90" y="612"/>
      <point x="151" y="661"/>
      <point x="243" y="661" type="curve" smooth="yes"/>
      <point x="337" y="661"/>
      <point x="399" y="612"/>
      <point x="399" y="515" type="curve" smooth="yes"/>
      <point x="399" y="186" type="line" smooth="yes"/>
      <point x="399" y="88"/>
      <point x="335" y="42"/>
      <point x="243" y="42" type="curve" smooth="yes"/>
      <point x="155" y="42"/>
      <point x="90" y="90"/>
    </contour>
    <contour>
      <point x="265" y="858" type="curve" smooth="yes"/>
      <point x="228" y="751" type="line"/>
      <point x="263" y="751" type="line"/>
      <point x="316" y="831" type="line"/>
      <point x="329" y="845"/>
      <point x="327" y="868"/>
      <point x="309" y="878" type="curve" smooth="yes"/>
      <point x="292" y="888"/>
      <point x="272" y="877"/>
    </contour>
  </outline>
</glyph>
<glyph name="Ucircumflex" format="1">
  <advance width="494"/>
  <unicode hex="00DB"/>
  <outline>
    <contour>
      <point x="455" y="185" type="curve" smooth="yes"/>
      <point x="455" y="698" type="line"/>
      <point x="400" y="698" type="line"/>
      <point x="400" y="186" type="line" smooth="yes"/>
      <point x="400" y="140"/>
      <point x="385" y="106"/>
      <point x="361" y="81" type="curve" smooth="yes"/>
      <point x="334" y="54"/>
      <point x="294" y="42"/>
      <point x="246" y="42" type="curve" smooth="yes"/>
      <point x="204" y="42"/>
      <point x="166" y="53"/>
      <point x="140" y="74" type="curve" smooth="yes"/>
      <point x="109" y="98"/>
      <point x="92" y="135"/>
      <point x="92" y="186" type="curve" smooth="yes"/>
      <point x="92" y="698" type="line"/>
      <point x="37" y="698" type="line"/>
      <point x="37" y="185" type="line" smooth="yes"/>
      <point x="37" y="118"/>
      <point x="58" y="68"/>
      <point x="98" y="36" type="curve" smooth="yes"/>
      <point x="140" y="4"/>
      <point x="190" y="-11"/>
      <point x="247" y="-11" type="curve" smooth="yes"/>
      <point x="303" y="-11"/>
      <point x="352" y="4"/>
      <point x="393" y="36" type="curve" smooth="yes"/>
      <point x="434" y="68"/>
      <point x="455" y="118"/>
    </contour>
    <contour>
      <point x="116" y="781" type="line"/>
      <point x="154" y="744" type="line"/>
      <point x="248" y="833" type="line"/>
      <point x="337" y="745" type="line"/>
      <point x="376" y="783" type="line"/>
      <point x="248" y="909" type="line"/>
    </contour>
  </outline>
</glyph>
<glyph name="egrave" format="1">
  <advance width="419"/>
  <unicode hex="00E8"/>
  <outline>
    <contour>
      <point x="86" y="133" type="curve" smooth="yes"/>
      <point x="86" y="195" type="line"/>
      <point x="390" y="211" type="line"/>
      <point x="390" y="341" type="line" smooth="yes"/>
      <point x="390" y="392"/>
      <point x="375" y="432"/>
      <point x="347" y="461" type="curve" smooth="yes"/>
      <point x="316" y="492"/>
      <point x="271" y="508"/>
      <point x="214" y="508" type="curve" smooth="yes"/>
      <point x="164" y="508"/>
      <point x="123" y="496"/>
      <point x="92" y="473" type="curve" smooth="yes"/>
      <point x="53" y="444"/>
      <point x="30" y="398"/>
      <point x="30" y="338" type="curve" smooth="yes"/>
      <point x="30" y="133" type="line" smooth="yes"/>
      <point x="30" y="80"/>
      <point x="47" y="46"/>
      <point x="71" y="24" type="curve" smooth="yes"/>
      <point x="112" y="-13"/>
      <point x="172" y="-12"/>
      <point x="202" y="-12" type="curve" smooth="yes"/>
      <point x="252" y="-11"/>
      <point x="314" y="4"/>
      <point x="365" y="35" type="curve"/>
      <point x="343" y="78" type="line"/>
      <point x="292" y="51"/>
      <point x="246" y="36"/>
      <point x="197" y="36" type="curve" smooth="yes"/>
      <point x="178" y="36"/>
      <point x="137" y="36"/>
      <point x="112" y="63" type="curve"/>
      <point x="96" y="77"/>
      <point x="86" y="99"/>
    </contour>
    <contour>
      <point x="334" y="348" type="curve" smooth="yes"/>
      <point x="334" y="319"/>
      <point x="334" y="289"/>
      <point x="334" y="261" type="curve"/>
      <point x="86" y="250" type="line"/>
      <point x="86" y="278"/>
      <point x="86" y="308"/>
      <point x="86" y="337" type="curve" smooth="yes"/>
      <point x="86" y="378"/>
      <point x="98" y="408"/>
      <point x="120" y="429" type="curve" smooth="yes"/>
      <point x="144" y="450"/>
      <point x="175" y="461"/>
      <point x="213" y="461" type="curve" smooth="yes"/>
      <point x="246" y="461"/>
      <point x="280" y="454"/>
      <point x="311" y="418" type="curve" smooth="yes"/>
      <point x="326" y="399"/>
      <point x="334" y="377"/>
    </contour>
    <contour>
      <point x="130" y="627" type="curve"/>
      <point x="183" y="548" type="line"/>
      <point x="218" y="548" type="line"/>
      <point x="181" y="654" type="line" smooth="yes"/>
      <point x="174" y="673"/>
      <point x="154" y="684"/>
      <point x="137" y="674" type="curve" smooth="yes"/>
      <point x="119" y="664"/>
      <point x="117" y="641"/>
    </contour>
  </outline>
</glyph>
<glyph name="edieresis" format="1">
  <advance width="423"/>
  <unicode hex="00EB"/>
  <outline>
    <contour>
      <point x="88" y="133" type="curve" smooth="yes"/>
      <point x="88" y="195" type="line"/>
      <point x="392" y="211" type="line"/>
      <point x="392" y="341" type="line" smooth="yes"/>
      <point x="392" y="392"/>
      <point x="377" y="432"/>
      <point x="349" y="461" type="curve" smooth="yes"/>
      <point x="318" y="492"/>
      <point x="273" y="508"/>
      <point x="216" y="508" type="curve" smooth="yes"/>
      <point x="166" y="508"/>
      <point x="125" y="496"/>
      <point x="94" y="473" type="curve" smooth="yes"/>
      <point x="55" y="444"/>
      <point x="32" y="398"/>
      <point x="32" y="338" type="curve" smooth="yes"/>
      <point x="32" y="133" type="line" smooth="yes"/>
      <point x="32" y="80"/>
      <point x="49" y="46"/>
      <point x="73" y="24" type="curve" smooth="yes"/>
      <point x="114" y="-13"/>
      <point x="174" y="-12"/>
      <point x="204" y="-12" type="curve" smooth="yes"/>
      <point x="255" y="-11"/>
      <point x="316" y="4"/>
      <point x="367" y="35" type="curve"/>
      <point x="345" y="78" type="line"/>
      <point x="294" y="51"/>
      <point x="248" y="36"/>
      <point x="200" y="36" type="curve" smooth="yes"/>
      <point x="180" y="36"/>
      <point x="139" y="36"/>
      <point x="114" y="63" type="curve"/>
      <point x="98" y="77"/>
      <point x="88" y="99"/>
    </contour>
    <contour>
      <point x="336" y="348" type="curve" smooth="yes"/>
      <point x="336" y="319"/>
      <point x="336" y="289"/>
      <point x="336" y="261" type="curve"/>
      <point x="88" y="250" type="line"/>
      <point x="88" y="278"/>
      <point x="88" y="308"/>
      <point x="88" y="337" type="curve" smooth="yes"/>
      <point x="88" y="378"/>
      <point x="100" y="408"/>
      <point x="123" y="429" type="curve" smooth="yes"/>
      <point x="146" y="450"/>
      <point x="177" y="461"/>
      <point x="215" y="461" type="curve" smooth="yes"/>
      <point x="248" y="461"/>
      <point x="282" y="454"/>
      <point x="313" y="418" type="curve" smooth="yes"/>
      <point x="328" y="399"/>
      <point x="336" y="377"/>
    </contour>
    <contour>
      <point x="291" y="641" type="curve" smooth="yes"/>
      <point x="272" y="641"/>
      <point x="258" y="626"/>
      <point x="258" y="607" type="curve" smooth="yes"/>
      <point x="258" y="588"/>
      <point x="272" y="574"/>
      <point x="291" y="574" type="curve" smooth="yes"/>
      <point x="309" y="574"/>
      <point x="325" y="588"/>
      <point x="325" y="607" type="curve" smooth="yes"/>
      <point x="325" y="626"/>
      <point x="309" y="641"/>
    </contour>
    <contour>
      <point x="134" y="641" type="curve" smooth="yes"/>
      <point x="115" y="641"/>
      <point x="99" y="626"/>
      <point x="99" y="607" type="curve" smooth="yes"/>
      <point x="99" y="588"/>
      <point x="115" y="574"/>
      <point x="134" y="574" type="curve" smooth="yes"/>
      <point x="151" y="574"/>
      <point x="166" y="588"/>
      <point x="166" y="607" type="curve" smooth="yes"/>
      <point x="166" y="626"/>
      <point x="151" y="641"/>
    </contour>
  </outline>
</glyph>
<glyph name="iacute" format="1">
  <advance width="175"/>
  <unicode hex="00ED"/>
  <outline>
    <contour>
      <point x="38" y="0" type="line"/>
      <point x="94" y="0" type="line"/>
      <point x="94" y="499" type="line"/>
      <point x="38" y="499" type="line"/>
    </contour>
    <contour>
      <point x="88" y="651" type="curve" smooth="yes"/>
      <point x="50" y="543" type="line"/>
      <point x="86" y="543" type="line"/>
      <point x="139" y="623" type="line"/>
      <point x="151" y="638"/>
      <point x="150" y="661"/>
      <point x="132" y="671" type="curve" smooth="yes"/>
      <point x="115" y="680"/>
      <point x="94" y="669"/>
    </contour>
  </outline>
</glyph>
<glyph name="icircumflex" format="1">
  <advance width="293"/>
  <unicode hex="00EE"/>
  <outline>
    <contour>
      <point x="116" y="0" type="line"/>
      <point x="172" y="0" type="line"/>
      <point x="172" y="499" type="line"/>
      <point x="116" y="499" type="line"/>
    </contour>
    <contour>
      <point x="15" y="582" type="line"/>
      <point x="53" y="543" type="line"/>
      <point x="146" y="634" type="line"/>
      <point x="235" y="546" type="line"/>
      <point x="274" y="583" type="line"/>
      <point x="146" y="708" type="line"/>
    </contour>
  </outline>
</glyph>
<glyph name="ntilde" format="1">
  <advance width="440"/>
  <unicode hex="00F1"/>
  <outline>
    <contour>
      <point x="350" y="342" type="curve" smooth="yes"/>
      <point x="350" y="0" type="line"/>
      <point x="405" y="0" type="line"/>
      <point x="405" y="345" type="line" smooth="yes"/>
      <point x="405" y="450"/>
      <point x="341" y="508"/>
      <point x="231" y="508" type="curve" smooth="yes"/>
      <point x="182" y="508"/>
      <point x="131" y="492"/>
      <point x="93" y="465" type="curve"/>
      <point x="93" y="499" type="line"/>
      <point x="37" y="499" type="line"/>
      <point x="37" y="0" type="line"/>
      <point x="93" y="0" type="line"/>
      <point x="93" y="424" type="line"/>
      <point x="134" y="447"/>
      <point x="175" y="458"/>
      <point x="220" y="458" type="curve" smooth="yes"/>
      <point x="283" y="458"/>
      <point x="350" y="432"/>
    </contour>
    <contour>
      <point x="350" y="581" type="curve"/>
      <point x="330" y="628" type="line"/>
      <point x="317" y="617"/>
      <point x="296" y="607"/>
      <point x="278" y="608" type="curve"/>
      <point x="263" y="607"/>
      <point x="217" y="634"/>
      <point x="169" y="634" type="curve" smooth="yes"/>
      <point x="142" y="634"/>
      <point x="114" y="626"/>
      <point x="91" y="602" type="curve"/>
      <point x="114" y="555" type="line"/>
      <point x="128" y="566"/>
      <point x="139" y="574"/>
      <point x="159" y="575" type="curve" smooth="yes"/>
      <point x="190" y="577"/>
      <point x="234" y="551"/>
      <point x="279" y="551" type="curve" smooth="yes"/>
      <point x="303" y="551"/>
      <point x="327" y="558"/>
    </contour>
  </outline>
</glyph>
<glyph name="odieresis" format="1">
  <advance width="431"/>
  <unicode hex="00F6"/>
  <outline>
    <contour>
      <point x="399" y="184" type="curve" smooth="yes"/>
      <point x="399" y="315" type="line" smooth="yes"/>
      <point x="399" y="436"/>
      <point x="335" y="510"/>
      <point x="216" y="510" type="curve" smooth="yes"/>
      <point x="97" y="510"/>
      <point x="30" y="442"/>
      <point x="30" y="315" type="curve" smooth="yes"/>
      <point x="30" y="184" type="line" smooth="yes"/>
      <point x="30" y="75"/>
      <point x="94" y="-10"/>
      <point x="218" y="-10" type="curve" smooth="yes"/>
      <point x="341" y="-10"/>
      <point x="399" y="71"/>
    </contour>
    <contour>
      <point x="342" y="315" type="curve" smooth="yes"/>
      <point x="342" y="174" type="line" smooth="yes"/>
      <point x="342" y="92"/>
      <point x="301" y="40"/>
      <point x="218" y="40" type="curve" smooth="yes"/>
      <point x="137" y="40"/>
      <point x="86" y="94"/>
      <point x="86" y="174" type="curve" smooth="yes"/>
      <point x="86" y="315" type="line" smooth="yes"/>
      <point x="86" y="411"/>
      <point x="130" y="460"/>
      <point x="218" y="460" type="curve" smooth="yes"/>
      <point x="304" y="460"/>
      <point x="342" y="411"/>
    </contour>
    <contour>
      <point x="323" y="606" type="curve" smooth="yes"/>
      <point x="323" y="625"/>
      <point x="308" y="639"/>
      <point x="290" y="639" type="curve" smooth="yes"/>
      <point x="271" y="639"/>
      <point x="256" y="625"/>
      <point x="256" y="606" type="curve" smooth="yes"/>
      <point x="256" y="587"/>
      <point x="271" y="572"/>
      <point x="290" y="572" type="curve" smooth="yes"/>
      <point x="308" y="572"/>
      <point x="323" y="587"/>
    </contour>
    <contour>
      <point x="165" y="606" type="curve" smooth="yes"/>
      <point x="165" y="625"/>
      <point x="150" y="639"/>
      <point x="131" y="639" type="curve" smooth="yes"/>
      <point x="114" y="639"/>
      <point x="98" y="625"/>
      <point x="98" y="606" type="curve" smooth="yes"/>
      <point x="98" y="587"/>
      <point x="114" y="572"/>
      <point x="131" y="572" type="curve" smooth="yes"/>
      <point x="150" y="572"/>
      <point x="165" y="587"/>
    </contour>
  </outline>
</glyph>
<glyph name="ugrave" format="1">
  <advance width="437"/>
  <unicode hex="00F9"/>
  <outline>
    <contour>
      <point x="346" y="48" type="curve"/>
      <point x="346" y="0" type="line"/>
      <point x="402" y="0" type="line"/>
      <point x="402" y="499" type="line"/>
      <point x="346" y="499" type="line"/>
      <point x="346" y="172" type="line" smooth="yes"/>
      <point x="346" y="101"/>
      <point x="290" y="44"/>
      <point x="219" y="44" type="curve" smooth="yes"/>
      <point x="155" y="44"/>
      <point x="89" y="68"/>
      <point x="89" y="159" type="curve" smooth="yes"/>
      <point x="89" y="499" type="line"/>
      <point x="33" y="499" type="line"/>
      <point x="33" y="156" type="line" smooth="yes"/>
      <point x="33" y="43"/>
      <point x="96" y="-10"/>
      <point x="207" y="-10" type="curve" smooth="yes"/>
      <point x="257" y="-10"/>
      <point x="312" y="9"/>
    </contour>
    <contour>
      <point x="142" y="621" type="curve" smooth="yes"/>
      <point x="195" y="543" type="line"/>
      <point x="230" y="543" type="line"/>
      <point x="193" y="650" type="line" smooth="yes"/>
      <point x="187" y="669"/>
      <point x="166" y="680"/>
      <point x="149" y="670" type="curve" smooth="yes"/>
      <point x="131" y="660"/>
      <point x="130" y="637"/>
    </contour>
  </outline>
</glyph>
<glyph name="udieresis" format="1">
  <advance width="439"/>
  <unicode hex="00FC"/>
  <outline>
    <contour>
      <point x="346" y="48" type="curve"/>
      <point x="346" y="0" type="line"/>
      <point x="402" y="0" type="line"/>
      <point x="402" y="499" type="line"/>
      <point x="346" y="499" type="line"/>
      <point x="346" y="172" type="line" smooth="yes"/>
      <point x="346" y="101"/>
      <point x="290" y="44"/>
      <point x="219" y="44" type="curve" smooth="yes"/>
      <point x="155" y="44"/>
      <point x="89" y="68"/>
      <point x="89" y="159" type="curve" smooth="yes"/>
      <point x="89" y="499" type="line"/>
      <point x="33" y="499" type="line"/>
      <point x="33" y="156" type="line" smooth="yes"/>
      <point x="33" y="43"/>
      <point x="96" y="-10"/>
      <point x="207" y="-10" type="curve" smooth="yes"/>
      <point x="257" y="-10"/>
      <point x="312" y="9"/>
    </contour>
    <contour>
      <point x="297" y="636" type="curve" smooth="yes"/>
      <point x="279" y="636"/>
      <point x="263" y="620"/>
      <point x="263" y="602" type="curve" smooth="yes"/>
      <point x="263" y="583"/>
      <point x="279" y="569"/>
      <point x="297" y="569" type="curve" smooth="yes"/>
      <point x="315" y="569"/>
      <point x="330" y="583"/>
      <point x="330" y="602" type="curve" smooth="yes"/>
      <point x="330" y="620"/>
      <point x="315" y="636"/>
    </contour>
    <contour>
      <point x="139" y="636" type="curve" smooth="yes"/>
      <point x="120" y="636"/>
      <point x="106" y="620"/>
      <point x="106" y="602" type="curve" smooth="yes"/>
      <point x="106" y="583"/>
      <point x="120" y="569"/>
      <point x="139" y="569" type="curve" smooth="yes"/>
      <point x="158" y="569"/>
      <point x="172" y="583"/>
      <point x="172" y="602" type="curve" smooth="yes"/>
      <point x="172" y="620"/>
      <point x="158" y="636"/>
    </contour>
  </outline>
</glyph>
<glyph name="yacute" format="1">
  <advance width="463"/>
  <unicode hex="00FD"/>
  <outline>
    <contour>
      <point x="434" y="468" type="curve"/>
      <point x="414" y="510" type="line"/>
      <point x="366" y="494"/>
      <point x="345" y="453"/>
      <point x="345" y="408" type="curve" smooth="yes"/>
      <point x="345" y="173" type="line" smooth="yes"/>
      <point x="345" y="102"/>
      <point x="289" y="44"/>
      <point x="218" y="44" type="curve" smooth="yes"/>
      <point x="155" y="44"/>
      <point x="88" y="69"/>
      <point x="88" y="161" type="curve" smooth="yes"/>
      <point x="88" y="499" type="line"/>
      <point x="32" y="499" type="line"/>
      <point x="32" y="157" type="line" smooth="yes"/>
      <point x="32" y="44"/>
      <point x="96" y="-9"/>
      <point x="206" y="-9" type="curve" smooth="yes"/>
      <point x="256" y="-9"/>
      <point x="312" y="10"/>
      <point x="345" y="50" type="curve"/>
      <point x="345" y="-61" type="line" smooth="yes"/>
      <point x="345" y="-89"/>
      <point x="339" y="-112"/>
      <point x="326" y="-130" type="curve" smooth="yes"/>
      <point x="315" y="-145"/>
      <point x="300" y="-157"/>
      <point x="280" y="-165" type="curve"/>
      <point x="296" y="-208" type="line"/>
      <point x="328" y="-197"/>
      <point x="352" y="-184"/>
      <point x="370" y="-165" type="curve" smooth="yes"/>
      <point x="392" y="-140"/>
      <point x="401" y="-107"/>
      <point x="401" y="-62" type="curve" smooth="yes"/>
      <point x="401" y="407" type="line" smooth="yes"/>
      <point x="401" y="448"/>
      <point x="415" y="460"/>
    </contour>
    <contour>
      <point x="256" y="650" type="curve"/>
      <point x="217" y="543" type="line"/>
      <point x="252" y="543" type="line"/>
      <point x="306" y="621" type="line" smooth="yes"/>
      <point x="318" y="637"/>
      <point x="317" y="660"/>
      <point x="300" y="670" type="curve" smooth="yes"/>
      <point x="282" y="680"/>
      <point x="261" y="669"/>
    </contour>
  </outline>
</glyph>
<glyph name="abreve" format="1">
  <advance width="445"/>
  <unicode hex="0103"/>
  <outline>
    <contour>
      <point x="355" y="349" type="curve"/>
      <point x="309" y="375"/>
      <point x="245" y="402"/>
      <point x="180" y="402" type="curve" smooth="yes"/>
      <point x="100" y="402"/>
      <point x="27" y="363"/>
      <point x="27" y="251" type="curve" smooth="yes"/>
      <point x="27" y="223"/>
      <point x="27" y="196"/>
      <point x="27" y="168" type="curve" smooth="yes"/>
      <point x="27" y="21"/>
      <point x="125" y="-14"/>
      <point x="254" y="-10" type="curve" smooth="yes"/>
      <point x="303" y="-9"/>
      <point x="411" y="0"/>
      <point x="411" y="0" type="curve"/>
      <point x="411" y="96"/>
      <point x="411" y="191"/>
      <point x="411" y="287" type="curve" smooth="yes"/>
      <point x="411" y="375"/>
      <point x="403" y="444"/>
      <point x="340" y="480" type="curve" smooth="yes"/>
      <point x="299" y="504"/>
      <point x="249" y="507"/>
      <point x="203" y="507" type="curve"/>
      <point x="201" y="464" type="line"/>
      <point x="238" y="464"/>
      <point x="272" y="461"/>
      <point x="298" y="449" type="curve" smooth="yes"/>
      <point x="334" y="432"/>
      <point x="355" y="404"/>
    </contour>
    <contour>
      <point x="355" y="302" type="curve"/>
      <point x="355" y="217"/>
      <point x="355" y="132"/>
      <point x="355" y="46" type="curve"/>
      <point x="355" y="46"/>
      <point x="314" y="42"/>
      <point x="249" y="38" type="curve" smooth="yes"/>
      <point x="116" y="33"/>
      <point x="82" y="80"/>
      <point x="82" y="175" type="curve" smooth="yes"/>
      <point x="82" y="195"/>
      <point x="82" y="226"/>
      <point x="82" y="249" type="curve" smooth="yes"/>
      <point x="82" y="339"/>
      <point x="139" y="354"/>
      <point x="175" y="354" type="curve" smooth="yes"/>
      <point x="239" y="354"/>
      <point x="300" y="329"/>
    </contour>
    <contour>
      <point x="333" y="661" type="curve" smooth="yes"/>
      <point x="333" y="668" type="line"/>
      <point x="287" y="668" type="line"/>
      <point x="287" y="661" type="line" smooth="yes"/>
      <point x="287" y="624"/>
      <point x="257" y="593"/>
      <point x="220" y="593" type="curve" smooth="yes"/>
      <point x="182" y="593"/>
      <point x="151" y="624"/>
      <point x="151" y="661" type="curve" smooth="yes"/>
      <point x="151" y="668" type="line"/>
      <point x="106" y="668" type="line"/>
      <point x="106" y="661" type="line" smooth="yes"/>
      <point x="106" y="598"/>
      <point x="157" y="548"/>
      <point x="220" y="548" type="curve" smooth="yes"/>
      <point x="281" y="548"/>
      <point x="333" y="598"/>
    </contour>
  </outline>
</glyph>
<glyph name="aogonek" format="1">
  <advance width="494"/>
  <unicode hex="0105"/>
  <outline>
    <contour>
      <point x="354" y="349" type="curve"/>
      <point x="307" y="375"/>
      <point x="244" y="402"/>
      <point x="179" y="402" type="curve" smooth="yes"/>
      <point x="98" y="402"/>
      <point x="26" y="363"/>
      <point x="26" y="251" type="curve" smooth="yes"/>
      <point x="26" y="223"/>
      <point x="26" y="196"/>
      <point x="26" y="168" type="curve" smooth="yes"/>
      <point x="26" y="21"/>
      <point x="124" y="-14"/>
      <point x="252" y="-10" type="curve" smooth="yes"/>
      <point x="302" y="-9"/>
      <point x="410" y="0"/>
      <point x="410" y="0" type="curve"/>
      <point x="410" y="96"/>
      <point x="410" y="191"/>
      <point x="410" y="287" type="curve" smooth="yes"/>
      <point x="410" y="375"/>
      <point x="402" y="444"/>
      <point x="339" y="480" type="curve" smooth="yes"/>
      <point x="297" y="504"/>
      <point x="248" y="507"/>
      <point x="202" y="507" type="curve"/>
      <point x="200" y="464" type="line"/>
      <point x="237" y="464"/>
      <point x="271" y="461"/>
      <point x="296" y="449" type="curve" smooth="yes"/>
      <point x="333" y="432"/>
      <point x="354" y="404"/>
    </contour>
    <contour>
      <point x="354" y="302" type="curve"/>
      <point x="354" y="217"/>
      <point x="354" y="132"/>
      <point x="354" y="46" type="curve"/>
      <point x="354" y="46"/>
      <point x="313" y="42"/>
      <point x="248" y="38" type="curve" smooth="yes"/>
      <point x="115" y="33"/>
      <point x="81" y="80"/>
      <point x="81" y="175" type="curve" smooth="yes"/>
      <point x="81" y="195"/>
      <point x="81" y="226"/>
      <point x="81" y="249" type="curve" smooth="yes"/>
      <point x="81" y="339"/>
      <point x="138" y="354"/>
      <point x="174" y="354" type="curve" smooth="yes"/>
      <point x="238" y="354"/>
      <point x="299" y="329"/>
    </contour>
    <contour>
      <point x="329" y="-132" type="curve" smooth="yes"/>
      <point x="354" y="-90"/>
      <point x="377" y="-50"/>
      <point x="401" y="-8" type="curve"/>
      <point x="401" y="1" type="line"/>
      <point x="387" y="0"/>
      <point x="371" y="-1"/>
      <point x="357" y="-2" type="curve"/>
      <point x="357" y="-3"/>
      <point x="357" y="-6"/>
      <point x="357" y="-7" type="curve"/>
      <point x="293" y="-118" type="line" smooth="yes"/>
      <point x="252" y="-189"/>
      <point x="301" y="-260"/>
      <point x="389" y="-234" type="curve"/>
      <point x="408" y="-230"/>
      <point x="492" y="-200"/>
      <point x="493" y="-199" type="curve"/>
      <point x="476" y="-160" type="line"/>
      <point x="476" y="-160"/>
      <point x="434" y="-174"/>
      <point x="379" y="-193" type="curve" smooth="yes"/>
      <point x="329" y="-210"/>
      <point x="303" y="-178"/>
    </contour>
  </outline>
</glyph>
<glyph name="Ccaron" format="1">
  <advance width="422"/>
  <unicode hex="010C"/>
  <outline>
    <contour>
      <point x="353" y="637" type="curve"/>
      <point x="370" y="675" type="line"/>
      <point x="327" y="697"/>
      <point x="279" y="708"/>
      <point x="228" y="708" type="curve" smooth="yes"/>
      <point x="187" y="708"/>
      <point x="151" y="700"/>
      <point x="121" y="683" type="curve" smooth="yes"/>
      <point x="63" y="647"/>
      <point x="34" y="590"/>
      <point x="34" y="503" type="curve" smooth="yes"/>
      <point x="34" y="183" type="line" smooth="yes"/>
      <point x="34" y="99"/>
      <point x="67" y="42"/>
      <point x="116" y="15" type="curve" smooth="yes"/>
      <point x="164" y="-10"/>
      <point x="213" y="-10"/>
      <point x="234" y="-10" type="curve" smooth="yes"/>
      <point x="284" y="-10"/>
      <point x="338" y="1"/>
      <point x="395" y="23" type="curve"/>
      <point x="383" y="69" type="line"/>
      <point x="326" y="50"/>
      <point x="277" y="40"/>
      <point x="238" y="40" type="curve" smooth="yes"/>
      <point x="192" y="40"/>
      <point x="160" y="48"/>
      <point x="137" y="65" type="curve" smooth="yes"/>
      <point x="101" y="90"/>
      <point x="90" y="132"/>
      <point x="90" y="185" type="curve" smooth="yes"/>
      <point x="90" y="512" type="line" smooth="yes"/>
      <point x="90" y="568"/>
      <point x="107" y="607"/>
      <point x="141" y="631" type="curve" smooth="yes"/>
      <point x="166" y="649"/>
      <point x="202" y="658"/>
      <point x="246" y="658" type="curve" smooth="yes"/>
      <point x="280" y="658"/>
      <point x="316" y="651"/>
    </contour>
    <contour>
      <point x="213" y="815" type="line"/>
      <point x="124" y="903" type="line"/>
      <point x="85" y="865" type="line"/>
      <point x="213" y="739" type="line"/>
      <point x="345" y="867" type="line"/>
      <point x="306" y="904" type="line"/>
    </contour>
  </outline>
</glyph>
<glyph name="emacron" format="1">
  <advance width="421"/>
  <unicode hex="0113"/>
  <outline>
    <contour>
      <point x="87" y="133" type="curve" smooth="yes"/>
      <point x="87" y="195" type="line"/>
      <point x="391" y="211" type="line"/>
      <point x="391" y="341" type="line" smooth="yes"/>
      <point x="391" y="392"/>
      <point x="376" y="432"/>
      <point x="348" y="461" type="curve" smooth="yes"/>
      <point x="317" y="492"/>
      <point x="272" y="508"/>
      <point x="215" y="508" type="curve" smooth="yes"/>
      <point x="165" y="508"/>
      <point x="124" y="496"/>
      <point x="93" y="473" type="curve" smooth="yes"/>
      <point x="54" y="444"/>
      <point x="31" y="398"/>
      <point x="31" y="338" type="curve" smooth="yes"/>
      <point x="31" y="133" type="line" smooth="yes"/>
      <point x="31" y="80"/>
      <point x="48" y="46"/>
      <point x="72" y="24" type="curve" smooth="yes"/>
      <point x="113" y="-13"/>
      <point x="173" y="-12"/>
      <point x="203" y="-12" type="curve" smooth="yes"/>
      <point x="254" y="-11"/>
      <point x="315" y="4"/>
      <point x="366" y="35" type="curve"/>
      <point x="344" y="78" type="line"/>
      <point x="293" y="51"/>
      <point x="247" y="36"/>
      <point x="199" y="36" type="curve" smooth="yes"/>
      <point x="179" y="36"/>
      <point x="138" y="36"/>
      <point x="113" y="63" type="curve"/>
      <point x="97" y="77"/>
      <point x="87" y="99"/>
    </contour>
    <contour>
      <point x="335" y="348" type="curve" smooth="yes"/>
      <point x="335" y="319"/>
      <point x="335" y="289"/>
      <point x="335" y="261" type="curve"/>
      <point x="87" y="250" type="line"/>
      <point x="87" y="278"/>
      <point x="87" y="308"/>
      <point x="87" y="337" type="curve" smooth="yes"/>
      <point x="87" y="378"/>
      <point x="99" y="408"/>
      <point x="122" y="429" type="curve" smooth="yes"/>
      <point x="145" y="450"/>
      <point x="176" y="461"/>
      <point x="214" y="461" type="curve" smooth="yes"/>
      <point x="247" y="461"/>
      <point x="281" y="454"/>
      <point x="312" y="418" type="curve" smooth="yes"/>
      <point x="327" y="399"/>
      <point x="335" y="377"/>
    </contour>
    <contour>
      <point x="101" y="548" type="line"/>
      <point x="322" y="548" type="line"/>
      <point x="322" y="605" type="line"/>
      <point x="101" y="605" type="line"/>
    </contour>
  </outline>
</glyph>
<glyph name="eogonek" format="1">
  <advance width="421"/>
  <unicode hex="0119"/>
  <outline>
    <contour>
      <point x="87" y="133" type="curve" smooth="yes"/>
      <point x="87" y="195" type="line"/>
      <point x="391" y="211" type="line"/>
      <point x="391" y="341" type="line" smooth="yes"/>
      <point x="391" y="392"/>
      <point x="376" y="432"/>
      <point x="348" y="461" type="curve" smooth="yes"/>
      <point x="317" y="492"/>
      <point x="272" y="508"/>
      <point x="215" y="508" type="curve" smooth="yes"/>
      <point x="165" y="508"/>
      <point x="124" y="496"/>
      <point x="93" y="473" type="curve" smooth="yes"/>
      <point x="54" y="444"/>
      <point x="31" y="398"/>
      <point x="31" y="338" type="curve" smooth="yes"/>
      <point x="31" y="133" type="line" smooth="yes"/>
      <point x="31" y="80"/>
      <point x="48" y="46"/>
      <point x="72" y="24" type="curve" smooth="yes"/>
      <point x="113" y="-13"/>
      <point x="173" y="-12"/>
      <point x="203" y="-12" type="curve" smooth="yes"/>
      <point x="253" y="-11"/>
      <point x="315" y="4"/>
      <point x="366" y="35" type="curve"/>
      <point x="344" y="78" type="line"/>
      <point x="293" y="51"/>
      <point x="247" y="36"/>
      <point x="198" y="36" type="curve" smooth="yes"/>
      <point x="179" y="36"/>
      <point x="138" y="36"/>
      <point x="113" y="63" type="curve"/>
      <point x="97" y="77"/>
      <point x="87" y="99"/>
    </contour>
    <contour>
      <point x="335" y="348" type="curve" smooth="yes"/>
      <point x="335" y="319"/>
      <point x="335" y="289"/>
      <point x="335" y="261" type="curve"/>
      <point x="87" y="250" type="line"/>
      <point x="87" y="278"/>
      <point x="87" y="308"/>
      <point x="87" y="337" type="curve" smooth="yes"/>
      <point x="87" y="378"/>
      <point x="99" y="408"/>
      <point x="121" y="429" type="curve" smooth="yes"/>
      <point x="145" y="450"/>
      <point x="176" y="461"/>
      <point x="214" y="461" type="curve" smooth="yes"/>
      <point x="247" y="461"/>
      <point x="281" y="454"/>
      <point x="312" y="418" type="curve" smooth="yes"/>
      <point x="327" y="399"/>
      <point x="335" y="377"/>
    </contour>
    <contour>
      <point x="160" y="-139" type="curve" smooth="yes"/>
      <point x="230" y="-14" type="line"/>
      <point x="230" y="-6" type="line"/>
      <point x="186" y="-9" type="line"/>
      <point x="186" y="-14" type="line"/>
      <point x="123" y="-124" type="line" smooth="yes"/>
      <point x="82" y="-197"/>
      <point x="130" y="-267"/>
      <point x="219" y="-242" type="curve" smooth="yes"/>
      <point x="238" y="-237"/>
      <point x="322" y="-207"/>
      <point x="324" y="-207" type="curve"/>
      <point x="305" y="-166" type="line"/>
      <point x="305" y="-166"/>
      <point x="263" y="-182"/>
      <point x="208" y="-200" type="curve" smooth="yes"/>
      <point x="160" y="-217"/>
      <point x="134" y="-186"/>
    </contour>
  </outline>
</glyph>
<glyph name="Ecaron" format="1">
  <advance width="405"/>
  <unicode hex="011A"/>
  <outline>
    <contour>
      <point x="41" y="0" type="line"/>
      <point x="372" y="0" type="line"/>
      <point x="372" y="50" type="line"/>
      <point x="97" y="50" type="line"/>
      <point x="97" y="356" type="line"/>
      <point x="269" y="356" type="line"/>
      <point x="287" y="411" type="line"/>
      <point x="97" y="411" type="line"/>
      <point x="97" y="646" type="line"/>
      <point x="374" y="646" type="line"/>
      <point x="374" y="698" type="line"/>
      <point x="41" y="698" type="line"/>
    </contour>
    <contour>
      <point x="203" y="822" type="line"/>
      <point x="114" y="910" type="line"/>
      <point x="75" y="871" type="line"/>
      <point x="203" y="746" type="line"/>
      <point x="335" y="872" type="line"/>
      <point x="296" y="911" type="line"/>
    </contour>
  </outline>
</glyph>
<glyph name="Gcircumflex" format="1">
  <advance width="477"/>
  <unicode hex="011C"/>
  <outline>
    <contour>
      <point x="353" y="636" type="curve"/>
      <point x="370" y="674" type="line"/>
      <point x="327" y="696"/>
      <point x="279" y="707"/>
      <point x="228" y="707" type="curve" smooth="yes"/>
      <point x="187" y="707"/>
      <point x="151" y="698"/>
      <point x="121" y="682" type="curve"/>
      <point x="64" y="647"/>
      <point x="34" y="586"/>
      <point x="34" y="502" type="curve" smooth="yes"/>
      <point x="34" y="188" type="line" smooth="yes"/>
      <point x="34" y="122"/>
      <point x="54" y="73"/>
      <point x="96" y="40" type="curve" smooth="yes"/>
      <point x="137" y="7"/>
      <point x="187" y="-10"/>
      <point x="247" y="-10" type="curve" smooth="yes"/>
      <point x="308" y="-10"/>
      <point x="354" y="7"/>
      <point x="390" y="41" type="curve"/>
      <point x="404" y="0" type="line"/>
      <point x="445" y="0" type="line"/>
      <point x="445" y="299" type="line"/>
      <point x="243" y="299" type="line"/>
      <point x="263" y="244" type="line"/>
      <point x="392" y="244" type="line"/>
      <point x="392" y="186" type="line" smooth="yes"/>
      <point x="392" y="143"/>
      <point x="378" y="109"/>
      <point x="352" y="84" type="curve" smooth="yes"/>
      <point x="327" y="58"/>
      <point x="290" y="44"/>
      <point x="245" y="44" type="curve" smooth="yes"/>
      <point x="155" y="44"/>
      <point x="90" y="98"/>
      <point x="90" y="186" type="curve" smooth="yes"/>
      <point x="90" y="510" type="line" smooth="yes"/>
      <point x="90" y="562"/>
      <point x="105" y="599"/>
      <point x="133" y="624" type="curve" smooth="yes"/>
      <point x="160" y="646"/>
      <point x="197" y="657"/>
      <point x="247" y="657" type="curve" smooth="yes"/>
      <point x="280" y="657"/>
      <point x="316" y="650"/>
    </contour>
    <contour>
      <point x="110" y="779" type="line"/>
      <point x="149" y="740" type="line"/>
      <point x="241" y="831" type="line"/>
      <point x="330" y="743" type="line"/>
      <point x="370" y="780" type="line"/>
      <point x="241" y="906" type="line"/>
    </contour>
  </outline>
</glyph>
<glyph name="hbar" format="1">
  <advance width="471"/>
  <unicode hex="0127"/>
  <outline>
    <contour>
      <point x="126" y="465" type="curve"/>
      <point x="126" y="562" type="line"/>
      <point x="261" y="562" type="line"/>
      <point x="261" y="615" type="line"/>
      <point x="126" y="615" type="line"/>
      <point x="126" y="698" type="line"/>
      <point x="70" y="698" type="line"/>
      <point x="70" y="615" type="line"/>
      <point x="26" y="615" type="line"/>
      <point x="26" y="562" type="line"/>
      <point x="70" y="562" type="line"/>
      <point x="70" y="0" type="line"/>
      <point x="126" y="0" type="line"/>
      <point x="126" y="424" type="line"/>
      <point x="166" y="447"/>
      <point x="208" y="458"/>
      <point x="253" y="458" type="curve" smooth="yes"/>
      <point x="317" y="458"/>
      <point x="383" y="432"/>
      <point x="383" y="342" type="curve" smooth="yes"/>
      <point x="383" y="0" type="line"/>
      <point x="438" y="0" type="line"/>
      <point x="438" y="345" type="line" smooth="yes"/>
      <point x="438" y="450"/>
      <point x="374" y="508"/>
      <point x="264" y="508" type="curve" smooth="yes"/>
      <point x="215" y="508"/>
      <point x="164" y="492"/>
    </contour>
  </outline>
</glyph>
<glyph name="Jcircumflex" format="1">
  <advance width="256"/>
  <unicode hex="0134"/>
  <outline>
    <contour>
      <point x="170" y="118" type="curve" smooth="yes"/>
      <point x="170" y="698" type="line"/>
      <point x="47" y="698" type="line"/>
      <point x="47" y="649" type="line"/>
      <point x="113" y="647" type="line"/>
      <point x="113" y="113" type="line" smooth="yes"/>
      <point x="113" y="34"/>
      <point x="75" y="0"/>
      <point x="31" y="0" type="curve"/>
      <point x="45" y="-37" type="line"/>
      <point x="87" y="-37"/>
      <point x="120" y="-21"/>
      <point x="141" y="10" type="curve" smooth="yes"/>
      <point x="160" y="36"/>
      <point x="170" y="73"/>
    </contour>
    <contour>
      <point x="251" y="854" type="curve" smooth="yes"/>
      <point x="251" y="860" type="line"/>
      <point x="206" y="860" type="line"/>
      <point x="206" y="854" type="line" smooth="yes"/>
      <point x="206" y="816"/>
      <point x="175" y="785"/>
      <point x="138" y="785" type="curve" smooth="yes"/>
      <point x="101" y="785"/>
      <point x="71" y="816"/>
      <point x="71" y="854" type="curve" smooth="yes"/>
      <point x="71" y="860" type="line"/>
      <point x="25" y="860" type="line"/>
      <point x="25" y="854" type="line" smooth="yes"/>
      <point x="25" y="791"/>
      <point x="75" y="740"/>
      <point x="138" y="740" type="curve" smooth="yes"/>
      <point x="201" y="740"/>
      <point x="251" y="791"/>
    </contour>
  </outline>
</glyph>
<glyph name="lcommaaccent" format="1">
  <advance width="148"/>
  <unicode hex="013C"/>
  <outline>
    <contour>
      <point x="45" y="0" type="line"/>
      <point x="100" y="0" type="line"/>
      <point x="100" y="698" type="line"/>
      <point x="45" y="698" type="line"/>
    </contour>
    <contour>
      <point x="39" y="-198" type="curve"/>
      <point x="56" y="-210" type="line"/>
      <point x="76" y="-191"/>
      <point x="109" y="-153"/>
      <point x="109" y="-90" type="curve" smooth="yes"/>
      <point x="109" y="-70"/>
      <point x="94" y="-56"/>
      <point x="76" y="-56" type="curve" smooth="yes"/>
      <point x="57" y="-56"/>
      <point x="42" y="-72"/>
      <point x="42" y="-90" type="curve" smooth="yes"/>
      <point x="42" y="-107"/>
      <point x="54" y="-120"/>
      <point x="71" y="-123" type="curve"/>
      <point x="68" y="-144"/>
      <point x="61" y="-172"/>
    </contour>
  </outline>
</glyph>
<glyph name="Lslash" format="1">
  <advance width="509"/>
  <unicode hex="0141"/>
  <outline>
    <contour>
      <point x="126" y="0" type="line"/>
      <point x="487" y="0" type="line"/>
      <point x="487" y="50" type="line"/>
      <point x="182" y="50" type="line"/>
      <point x="182" y="372" type="line"/>
      <point x="332" y="439" type="line"/>
      <point x="309" y="488" type="line"/>
      <point x="182" y="431" type="line"/>
      <point x="182" y="698" type="line"/>
      <point x="126" y="698" type="line"/>
      <point x="126" y="406" type="line"/>
      <point x="18" y="358" type="line"/>
      <point x="40" y="308" type="line"/>
      <point x="126" y="346" type="line"/>
    </contour>
  </outline>
</glyph>
<glyph name="lslash" format="1">
  <advance width="353"/>
  <unicode hex="0142"/>
  <outline>
    <contour>
      <point x="145" y="414" type="line"/>
      <point x="17" y="356" type="line"/>
      <point x="39" y="307" type="line"/>
      <point x="145" y="354" type="line"/>
      <point x="145" y="0" type="line"/>
      <point x="201" y="0" type="line"/>
      <point x="201" y="380" type="line"/>
      <point x="330" y="438" type="line"/>
      <point x="307" y="487" type="line"/>
      <point x="201" y="439" type="line"/>
      <point x="201" y="698" type="line"/>
      <point x="145" y="698" type="line"/>
    </contour>
  </outline>
</glyph>
<glyph name="Ncommaaccent" format="1">
  <advance width="575"/>
  <unicode hex="0145"/>
  <outline>
    <contour>
      <point x="532" y="698" type="line"/>
      <point x="476" y="698" type="line"/>
      <point x="476" y="102" type="line"/>
      <point x="97" y="698" type="line"/>
      <point x="41" y="698" type="line"/>
      <point x="41" y="0" type="line"/>
      <point x="97" y="0" type="line"/>
      <point x="97" y="595" type="line"/>
      <point x="476" y="0" type="line"/>
      <point x="532" y="0" type="line"/>
    </contour>
    <contour>
      <point x="251" y="-198" type="curve"/>
      <point x="269" y="-210" type="line"/>
      <point x="287" y="-191"/>
      <point x="320" y="-153"/>
      <point x="320" y="-90" type="curve" smooth="yes"/>
      <point x="320" y="-70"/>
      <point x="306" y="-56"/>
      <point x="287" y="-56" type="curve" smooth="yes"/>
      <point x="269" y="-56"/>
      <point x="254" y="-72"/>
      <point x="254" y="-90" type="curve" smooth="yes"/>
      <point x="254" y="-107"/>
      <point x="267" y="-120"/>
      <point x="282" y="-123" type="curve"/>
      <point x="280" y="-144"/>
      <point x="272" y="-172"/>
    </contour>
  </outline>
</glyph>
<glyph name="Ncaron" format="1">
  <advance width="574"/>
  <unicode hex="0147"/>
  <outline>
    <contour>
      <point x="532" y="698" type="line"/>
      <point x="475" y="698" type="line"/>
      <point x="475" y="102" type="line"/>
      <point x="97" y="698" type="line"/>
      <point x="41" y="698" type="line"/>
      <point x="41" y="0" type="line"/>
      <point x="97" y="0" type="line"/>
      <point x="97" y="595" type="line"/>
      <point x="475" y="0" type="line"/>
      <point x="532" y="0" type="line"/>
    </contour>
    <contour>
      <point x="284" y="827" type="line"/>
      <point x="195" y="915" type="line"/>
      <point x="156" y="877" type="line"/>
      <point x="284" y="751" type="line"/>
      <point x="416" y="879" type="line"/>
      <point x="378" y="916" type="line"/>
    </contour>
  </outline>
</glyph>
<glyph name="ohungarumlaut" format="1">
  <advance width="429"/>
  <unicode hex="0151"/>
  <outline>
    <contour>
      <point x="397" y="184" type="curve" smooth="yes"/>
      <point x="397" y="315" type="line" smooth="yes"/>
      <point x="397" y="436"/>
      <point x="333" y="510"/>
      <point x="214" y="510" type="curve" smooth="yes"/>
      <point x="95" y="510"/>
      <point x="28" y="442"/>
      <point x="28" y="315" type="curve" smooth="yes"/>
      <point x="28" y="184" type="line" smooth="yes"/>
      <point x="28" y="75"/>
      <point x="92" y="-10"/>
      <point x="216" y="-10" type="curve" smooth="yes"/>
      <point x="339" y="-10"/>
      <point x="397" y="71"/>
    </contour>
    <contour>
      <point x="340" y="315" type="curve" smooth="yes"/>
      <point x="340" y="174" type="line" smooth="yes"/>
      <point x="340" y="92"/>
      <point x="299" y="40"/>
      <point x="216" y="40" type="curve" smooth="yes"/>
      <point x="135" y="40"/>
      <point x="84" y="94"/>
      <point x="84" y="174" type="curve" smooth="yes"/>
      <point x="84" y="315" type="line" smooth="yes"/>
      <point x="84" y="411"/>
      <point x="128" y="460"/>
      <point x="216" y="460" type="curve" smooth="yes"/>
      <point x="302" y="460"/>
      <point x="340" y="411"/>
    </contour>
    <contour>
      <point x="169" y="646" type="curve"/>
      <point x="130" y="539" type="line"/>
      <point x="165" y="539" type="line"/>
      <point x="219" y="618" type="line"/>
      <point x="232" y="632"/>
      <point x="230" y="656"/>
      <point x="213" y="665" type="curve" smooth="yes"/>
      <point x="195" y="675"/>
      <point x="174" y="664"/>
    </contour>
    <contour>
      <point x="299" y="646" type="curve"/>
      <point x="260" y="539" type="line"/>
      <point x="296" y="539" type="line"/>
      <point x="349" y="618" type="line"/>
      <point x="361" y="632"/>
      <point x="360" y="656"/>
      <point x="343" y="665" type="curve" smooth="yes"/>
      <point x="325" y="675"/>
      <point x="304" y="664"/>
    </contour>
  </outline>
</glyph>
<glyph name="oe" format="1">
  <advance width="739"/>
  <unicode hex="0153"/>
  <outline>
    <contour>
      <point x="405" y="133" type="curve" smooth="yes"/>
      <point x="405" y="195" type="line"/>
      <point x="709" y="211" type="line"/>
      <point x="709" y="341" type="line" smooth="yes"/>
      <point x="709" y="392"/>
      <point x="693" y="432"/>
      <point x="666" y="461" type="curve" smooth="yes"/>
      <point x="635" y="492"/>
      <point x="590" y="508"/>
      <point x="533" y="508" type="curve" smooth="yes"/>
      <point x="483" y="508"/>
      <point x="442" y="496"/>
      <point x="411" y="473" type="curve" smooth="yes"/>
      <point x="394" y="461"/>
      <point x="381" y="447"/>
      <point x="371" y="429" type="curve"/>
      <point x="342" y="481"/>
      <point x="290" y="510"/>
      <point x="215" y="510" type="curve" smooth="yes"/>
      <point x="96" y="510"/>
      <point x="29" y="442"/>
      <point x="29" y="315" type="curve" smooth="yes"/>
      <point x="29" y="184" type="line" smooth="yes"/>
      <point x="29" y="75"/>
      <point x="93" y="-10"/>
      <point x="217" y="-10" type="curve" smooth="yes"/>
      <point x="286" y="-10"/>
      <point x="335" y="15"/>
      <point x="363" y="58" type="curve"/>
      <point x="370" y="45"/>
      <point x="380" y="33"/>
      <point x="390" y="24" type="curve" smooth="yes"/>
      <point x="431" y="-13"/>
      <point x="491" y="-12"/>
      <point x="521" y="-12" type="curve" smooth="yes"/>
      <point x="571" y="-11"/>
      <point x="633" y="4"/>
      <point x="683" y="35" type="curve"/>
      <point x="661" y="78" type="line"/>
      <point x="611" y="51"/>
      <point x="565" y="36"/>
      <point x="516" y="36" type="curve" smooth="yes"/>
      <point x="497" y="36"/>
      <point x="456" y="36"/>
      <point x="431" y="63" type="curve"/>
      <point x="415" y="77"/>
      <point x="405" y="99"/>
    </contour>
    <contour>
      <point x="342" y="315" type="curve" smooth="yes"/>
      <point x="342" y="174" type="line" smooth="yes"/>
      <point x="342" y="92"/>
      <point x="300" y="40"/>
      <point x="217" y="40" type="curve" smooth="yes"/>
      <point x="136" y="40"/>
      <point x="85" y="94"/>
      <point x="85" y="174" type="curve" smooth="yes"/>
      <point x="85" y="315" type="line" smooth="yes"/>
      <point x="85" y="411"/>
      <point x="129" y="460"/>
      <point x="217" y="460" type="curve" smooth="yes"/>
      <point x="303" y="460"/>
      <point x="342" y="411"/>
    </contour>
    <contour>
      <point x="653" y="348" type="curve" smooth="yes"/>
      <point x="653" y="261" type="line"/>
      <point x="405" y="250" type="line"/>
      <point x="405" y="337" type="line" smooth="yes"/>
      <point x="405" y="378"/>
      <point x="417" y="408"/>
      <point x="439" y="429" type="curve" smooth="yes"/>
      <point x="462" y="450"/>
      <point x="494" y="461"/>
      <point x="532" y="461" type="curve" smooth="yes"/>
      <point x="565" y="461"/>
      <point x="599" y="454"/>
      <point x="630" y="418" type="curve" smooth="yes"/>
      <point x="645" y="399"/>
      <point x="653" y="377"/>
    </contour>
  </outline>
</glyph>
<glyph name="Sacute" format="1">
  <advance width="528"/>
  <unicode hex="015A"/>
  <outline>
    <contour>
      <point x="419" y="618" type="curve"/>
      <point x="437" y="670" type="line"/>
      <point x="390" y="695"/>
      <point x="331" y="708"/>
      <point x="273" y="708" type="curve" smooth="yes"/>
      <point x="218" y="707"/>
      <point x="164" y="694"/>
      <point x="125" y="665" type="curve" smooth="yes"/>
      <point x="89" y="639"/>
      <point x="63" y="601"/>
      <point x="61" y="548" type="curve" smooth="yes"/>
      <point x="56" y="448"/>
      <point x="129" y="403"/>
      <point x="213" y="366" type="curve" smooth="yes"/>
      <point x="246" y="352"/>
      <point x="280" y="339"/>
      <point x="312" y="324" type="curve" smooth="yes"/>
      <point x="385" y="293"/>
      <point x="443" y="254"/>
      <point x="438" y="177" type="curve" smooth="yes"/>
      <point x="436" y="141"/>
      <point x="423" y="112"/>
      <point x="403" y="91" type="curve" smooth="yes"/>
      <point x="369" y="56"/>
      <point x="313" y="42"/>
      <point x="258" y="42" type="curve" smooth="yes"/>
      <point x="202" y="42"/>
      <point x="159" y="63"/>
      <point x="130" y="84" type="curve" smooth="yes"/>
      <point x="83" y="120"/>
      <point x="71" y="161"/>
      <point x="71" y="161" type="curve"/>
      <point x="26" y="132" type="line"/>
      <point x="26" y="132"/>
      <point x="45" y="78"/>
      <point x="103" y="35" type="curve" smooth="yes"/>
      <point x="139" y="10"/>
      <point x="191" y="-12"/>
      <point x="262" y="-12" type="curve" smooth="yes"/>
      <point x="327" y="-12"/>
      <point x="392" y="4"/>
      <point x="437" y="43" type="curve" smooth="yes"/>
      <point x="473" y="74"/>
      <point x="497" y="118"/>
      <point x="499" y="179" type="curve" smooth="yes"/>
      <point x="502" y="282"/>
      <point x="425" y="334"/>
      <point x="339" y="373" type="curve" smooth="yes"/>
      <point x="304" y="389"/>
      <point x="267" y="404"/>
      <point x="234" y="418" type="curve" smooth="yes"/>
      <point x="168" y="447"/>
      <point x="115" y="480"/>
      <point x="118" y="541" type="curve" smooth="yes"/>
      <point x="121" y="580"/>
      <point x="138" y="607"/>
      <point x="166" y="625" type="curve" smooth="yes"/>
      <point x="194" y="645"/>
      <point x="234" y="654"/>
      <point x="274" y="654" type="curve" smooth="yes"/>
      <point x="325" y="654"/>
      <point x="378" y="641"/>
    </contour>
    <contour>
      <point x="292" y="849" type="curve" smooth="yes"/>
      <point x="255" y="743" type="line"/>
      <point x="290" y="743" type="line"/>
      <point x="343" y="822" type="line"/>
      <point x="356" y="836"/>
      <point x="354" y="859"/>
      <point x="336" y="869" type="curve" smooth="yes"/>
      <point x="318" y="879"/>
      <point x="299" y="868"/>
    </contour>
  </outline>
</glyph>
<glyph name="sacute" format="1">
  <advance width="416"/>
  <unicode hex="015B"/>
  <outline>
    <contour>
      <point x="322" y="439" type="curve"/>
      <point x="345" y="476" type="line"/>
      <point x="294" y="504"/>
      <point x="254" y="513"/>
      <point x="213" y="512" type="curve" smooth="yes"/>
      <point x="174" y="510"/>
      <point x="138" y="501"/>
      <point x="110" y="482" type="curve" smooth="yes"/>
      <point x="72" y="457"/>
      <point x="48" y="417"/>
      <point x="52" y="363" type="curve"/>
      <point x="57" y="324"/>
      <point x="79" y="298"/>
      <point x="107" y="278" type="curve" smooth="yes"/>
      <point x="137" y="258"/>
      <point x="173" y="244"/>
      <point x="209" y="231" type="curve" smooth="yes"/>
      <point x="243" y="218"/>
      <point x="276" y="206"/>
      <point x="299" y="188" type="curve" smooth="yes"/>
      <point x="321" y="172"/>
      <point x="335" y="152"/>
      <point x="334" y="122" type="curve"/>
      <point x="334" y="96"/>
      <point x="318" y="73"/>
      <point x="296" y="57" type="curve"/>
      <point x="274" y="43"/>
      <point x="245" y="34"/>
      <point x="213" y="34" type="curve" smooth="yes"/>
      <point x="183" y="34"/>
      <point x="157" y="40"/>
      <point x="134" y="48" type="curve"/>
      <point x="102" y="62"/>
      <point x="77" y="80"/>
      <point x="57" y="100" type="curve"/>
      <point x="26" y="69" type="line"/>
      <point x="51" y="38"/>
      <point x="81" y="18"/>
      <point x="112" y="4" type="curve" smooth="yes"/>
      <point x="145" y="-10"/>
      <point x="180" y="-15"/>
      <point x="213" y="-17" type="curve" smooth="yes"/>
      <point x="253" y="-18"/>
      <point x="290" y="-8"/>
      <point x="320" y="11" type="curve" smooth="yes"/>
      <point x="361" y="36"/>
      <point x="389" y="79"/>
      <point x="387" y="134" type="curve"/>
      <point x="383" y="170"/>
      <point x="367" y="198"/>
      <point x="344" y="219" type="curve" smooth="yes"/>
      <point x="314" y="245"/>
      <point x="272" y="262"/>
      <point x="233" y="276" type="curve" smooth="yes"/>
      <point x="202" y="288"/>
      <point x="172" y="299"/>
      <point x="148" y="312" type="curve"/>
      <point x="125" y="326"/>
      <point x="108" y="342"/>
      <point x="104" y="364" type="curve" smooth="yes"/>
      <point x="98" y="399"/>
      <point x="113" y="425"/>
      <point x="137" y="440" type="curve" smooth="yes"/>
      <point x="158" y="454"/>
      <point x="185" y="462"/>
      <point x="216" y="463" type="curve" smooth="yes"/>
      <point x="253" y="464"/>
      <point x="291" y="457"/>
    </contour>
    <contour>
      <point x="228" y="648" type="curve" smooth="yes"/>
      <point x="191" y="541" type="line"/>
      <point x="226" y="541" type="line"/>
      <point x="279" y="620" type="line"/>
      <point x="292" y="635"/>
      <point x="290" y="658"/>
      <point x="272" y="668" type="curve" smooth="yes"/>
      <point x="255" y="678"/>
      <point x="235" y="667"/>
    </contour>
  </outline>
</glyph>
<glyph name="scircumflex" format="1">
  <advance width="418"/>
  <unicode hex="015D"/>
  <outline>
    <contour>
      <point x="323" y="439" type="curve"/>
      <point x="345" y="476" type="line"/>
      <point x="295" y="504"/>
      <point x="255" y="513"/>
      <point x="214" y="512" type="curve" smooth="yes"/>
      <point x="175" y="510"/>
      <point x="139" y="501"/>
      <point x="111" y="482" type="curve" smooth="yes"/>
      <point x="72" y="457"/>
      <point x="49" y="417"/>
      <point x="53" y="363" type="curve"/>
      <point x="58" y="324"/>
      <point x="80" y="298"/>
      <point x="108" y="278" type="curve" smooth="yes"/>
      <point x="138" y="258"/>
      <point x="174" y="244"/>
      <point x="210" y="231" type="curve" smooth="yes"/>
      <point x="244" y="218"/>
      <point x="277" y="206"/>
      <point x="300" y="188" type="curve" smooth="yes"/>
      <point x="322" y="172"/>
      <point x="335" y="152"/>
      <point x="335" y="122" type="curve" smooth="yes"/>
      <point x="335" y="96"/>
      <point x="320" y="73"/>
      <point x="296" y="57" type="curve" smooth="yes"/>
      <point x="276" y="43"/>
      <point x="246" y="34"/>
      <point x="214" y="34" type="curve" smooth="yes"/>
      <point x="184" y="34"/>
      <point x="158" y="40"/>
      <point x="135" y="48" type="curve"/>
      <point x="103" y="62"/>
      <point x="78" y="80"/>
      <point x="58" y="100" type="curve"/>
      <point x="27" y="69" type="line"/>
      <point x="52" y="38"/>
      <point x="82" y="18"/>
      <point x="113" y="4" type="curve" smooth="yes"/>
      <point x="146" y="-10"/>
      <point x="181" y="-15"/>
      <point x="214" y="-17" type="curve" smooth="yes"/>
      <point x="254" y="-18"/>
      <point x="291" y="-8"/>
      <point x="321" y="11" type="curve" smooth="yes"/>
      <point x="362" y="36"/>
      <point x="390" y="79"/>
      <point x="387" y="134" type="curve" smooth="yes"/>
      <point x="385" y="170"/>
      <point x="368" y="198"/>
      <point x="345" y="219" type="curve" smooth="yes"/>
      <point x="315" y="245"/>
      <point x="273" y="262"/>
      <point x="234" y="276" type="curve" smooth="yes"/>
      <point x="203" y="288"/>
      <point x="172" y="299"/>
      <point x="149" y="312" type="curve" smooth="yes"/>
      <point x="126" y="326"/>
      <point x="110" y="342"/>
      <point x="105" y="364" type="curve"/>
      <point x="100" y="399"/>
      <point x="114" y="425"/>
      <point x="138" y="440" type="curve" smooth="yes"/>
      <point x="159" y="454"/>
      <point x="186" y="462"/>
      <point x="216" y="463" type="curve" smooth="yes"/>
      <point x="253" y="464"/>
      <point x="292" y="457"/>
    </contour>
    <contour>
      <point x="82" y="579" type="line"/>
      <point x="121" y="540" type="line"/>
      <point x="214" y="629" type="line"/>
      <point x="303" y="541" type="line"/>
      <point x="342" y="580" type="line"/>
      <point x="214" y="705" type="line"/>
    </contour>
  </outline>
</glyph>
<glyph name="scedilla" format="1">
  <advance width="416"/>
  <unicode hex="015F"/>
  <outline>
    <contour>
      <point x="322" y="439" type="curve"/>
      <point x="344" y="476" type="line"/>
      <point x="294" y="504"/>
      <point x="254" y="513"/>
      <point x="213" y="512" type="curve" smooth="yes"/>
      <point x="174" y="510"/>
      <point x="138" y="501"/>
      <point x="110" y="482" type="curve" smooth="yes"/>
      <point x="71" y="457"/>
      <point x="48" y="417"/>
      <point x="52" y="363" type="curve"/>
      <point x="57" y="324"/>
      <point x="79" y="298"/>
      <point x="107" y="278" type="curve" smooth="yes"/>
      <point x="136" y="258"/>
      <point x="173" y="244"/>
      <point x="209" y="231" type="curve" smooth="yes"/>
      <point x="243" y="218"/>
      <point x="274" y="206"/>
      <point x="299" y="188" type="curve" smooth="yes"/>
      <point x="321" y="172"/>
      <point x="334" y="152"/>
      <point x="334" y="122" type="curve"/>
      <point x="333" y="96"/>
      <point x="318" y="73"/>
      <point x="295" y="57" type="curve" smooth="yes"/>
      <point x="274" y="43"/>
      <point x="245" y="34"/>
      <point x="213" y="34" type="curve" smooth="yes"/>
      <point x="183" y="34"/>
      <point x="157" y="40"/>
      <point x="134" y="48" type="curve"/>
      <point x="102" y="62"/>
      <point x="77" y="80"/>
      <point x="57" y="100" type="curve"/>
      <point x="26" y="69" type="line"/>
      <point x="51" y="38"/>
      <point x="81" y="18"/>
      <point x="112" y="4" type="curve" smooth="yes"/>
      <point x="145" y="-10"/>
      <point x="180" y="-15"/>
      <point x="213" y="-17" type="curve" smooth="yes"/>
      <point x="253" y="-18"/>
      <point x="290" y="-8"/>
      <point x="320" y="11" type="curve" smooth="yes"/>
      <point x="361" y="36"/>
      <point x="389" y="79"/>
      <point x="386" y="134" type="curve" smooth="yes"/>
      <point x="383" y="170"/>
      <point x="367" y="198"/>
      <point x="344" y="219" type="curve" smooth="yes"/>
      <point x="314" y="245"/>
      <point x="272" y="262"/>
      <point x="233" y="276" type="curve" smooth="yes"/>
      <point x="202" y="288"/>
      <point x="171" y="299"/>
      <point x="148" y="312" type="curve" smooth="yes"/>
      <point x="125" y="326"/>
      <point x="107" y="342"/>
      <point x="103" y="364" type="curve" smooth="yes"/>
      <point x="98" y="399"/>
      <point x="113" y="425"/>
      <point x="137" y="440" type="curve" smooth="yes"/>
      <point x="158" y="454"/>
      <point x="185" y="462"/>
      <point x="215" y="463" type="curve" smooth="yes"/>
      <point x="251" y="464"/>
      <point x="291" y="457"/>
    </contour>
    <contour>
      <point x="215" y="-47" type="curve" smooth="yes"/>
      <point x="206" y="-48"/>
      <point x="198" y="-48"/>
      <point x="189" y="-50" type="curve"/>
      <point x="215" y="-6" type="line"/>
      <point x="166" y="-6" type="line"/>
      <point x="125" y="-75" type="line"/>
      <point x="139" y="-103" type="line"/>
      <point x="164" y="-101"/>
      <point x="191" y="-98"/>
      <point x="213" y="-97" type="curve" smooth="yes"/>
      <point x="246" y="-97"/>
      <point x="270" y="-103"/>
      <point x="270" y="-139" type="curve" smooth="yes"/>
      <point x="270" y="-178"/>
      <point x="239" y="-190"/>
      <point x="199" y="-190" type="curve" smooth="yes"/>
      <point x="173" y="-189"/>
      <point x="143" y="-184"/>
      <point x="116" y="-178" type="curve"/>
      <point x="110" y="-208"/>
      <point x="112" y="-198"/>
      <point x="105" y="-227" type="curve"/>
      <point x="107" y="-227"/>
      <point x="158" y="-239"/>
      <point x="205" y="-239" type="curve" smooth="yes"/>
      <point x="285" y="-239"/>
      <point x="321" y="-189"/>
      <point x="321" y="-141" type="curve" smooth="yes"/>
      <point x="321" y="-90"/>
      <point x="282" y="-41"/>
    </contour>
  </outline>
</glyph>
<glyph name="tcaron" format="1">
  <advance width="297"/>
  <unicode hex="0165"/>
  <outline>
    <contour>
      <point x="151" y="132" type="curve" smooth="yes"/>
      <point x="151" y="447" type="line"/>
      <point x="248" y="447" type="line"/>
      <point x="271" y="499" type="line"/>
      <point x="151" y="499" type="line"/>
      <point x="151" y="698" type="line"/>
      <point x="96" y="698" type="line"/>
      <point x="96" y="132" type="line" smooth="yes"/>
      <point x="96" y="53"/>
      <point x="127" y="8"/>
      <point x="202" y="-13" type="curve"/>
      <point x="217" y="30" type="line"/>
      <point x="173" y="45"/>
      <point x="151" y="79"/>
    </contour>
    <contour>
      <point x="123" y="809" type="line"/>
      <point x="33" y="897" type="line"/>
      <point x="-5" y="858" type="line"/>
      <point x="123" y="733" type="line"/>
      <point x="255" y="859" type="line"/>
      <point x="216" y="898" type="line"/>
    </contour>
  </outline>
</glyph>
<glyph name="Utilde" format="1">
  <advance width="494"/>
  <unicode hex="0168"/>
  <outline>
    <contour>
      <point x="455" y="185" type="curve" smooth="yes"/>
      <point x="455" y="698" type="line"/>
      <point x="400" y="698" type="line"/>
      <point x="400" y="186" type="line" smooth="yes"/>
      <point x="400" y="140"/>
      <point x="385" y="106"/>
      <point x="361" y="81" type="curve" smooth="yes"/>
      <point x="334" y="54"/>
      <point x="294" y="42"/>
      <point x="246" y="42" type="curve" smooth="yes"/>
      <point x="204" y="42"/>
      <point x="166" y="53"/>
      <point x="140" y="74" type="curve" smooth="yes"/>
      <point x="109" y="98"/>
      <point x="92" y="135"/>
      <point x="92" y="186" type="curve" smooth="yes"/>
      <point x="92" y="698" type="line"/>
      <point x="37" y="698" type="line"/>
      <point x="37" y="185" type="line" smooth="yes"/>
      <point x="37" y="118"/>
      <point x="58" y="68"/>
      <point x="98" y="36" type="curve" smooth="yes"/>
      <point x="140" y="4"/>
      <point x="190" y="-11"/>
      <point x="247" y="-11" type="curve" smooth="yes"/>
      <point x="303" y="-11"/>
      <point x="352" y="4"/>
      <point x="393" y="36" type="curve" smooth="yes"/>
      <point x="434" y="68"/>
      <point x="455" y="118"/>
    </contour>
    <contour>
      <point x="376" y="774" type="curve"/>
      <point x="355" y="822" type="line"/>
      <point x="341" y="811"/>
      <point x="320" y="802"/>
      <point x="302" y="802" type="curve" smooth="yes"/>
      <point x="289" y="802"/>
      <point x="242" y="827"/>
      <point x="194" y="827" type="curve" smooth="yes"/>
      <point x="166" y="827"/>
      <point x="139" y="820"/>
      <point x="116" y="795" type="curve"/>
      <point x="138" y="749" type="line"/>
      <point x="153" y="760"/>
      <point x="164" y="768"/>
      <point x="184" y="769" type="curve" smooth="yes"/>
      <point x="214" y="771"/>
      <point x="258" y="745"/>
      <point x="304" y="745" type="curve" smooth="yes"/>
      <point x="328" y="745"/>
      <point x="352" y="752"/>
    </contour>
  </outline>
</glyph>
<glyph name="utilde" format="1">
  <advance width="440"/>
  <unicode hex="0169"/>
  <outline>
    <contour>
      <point x="347" y="48" type="curve"/>
      <point x="347" y="0" type="line"/>
      <point x="403" y="0" type="line"/>
      <point x="403" y="499" type="line"/>
      <point x="347" y="499" type="line"/>
      <point x="347" y="172" type="line" smooth="yes"/>
      <point x="347" y="101"/>
      <point x="291" y="44"/>
      <point x="220" y="44" type="curve" smooth="yes"/>
      <point x="156" y="44"/>
      <point x="90" y="68"/>
      <point x="90" y="159" type="curve" smooth="yes"/>
      <point x="90" y="499" type="line"/>
      <point x="34" y="499" type="line"/>
      <point x="34" y="156" type="line" smooth="yes"/>
      <point x="34" y="43"/>
      <point x="97" y="-10"/>
      <point x="208" y="-10" type="curve" smooth="yes"/>
      <point x="258" y="-10"/>
      <point x="313" y="9"/>
    </contour>
    <contour>
      <point x="349" y="577" type="curve"/>
      <point x="328" y="625" type="line"/>
      <point x="315" y="614"/>
      <point x="294" y="605"/>
      <point x="275" y="605" type="curve" smooth="yes"/>
      <point x="262" y="605"/>
      <point x="216" y="630"/>
      <point x="167" y="630" type="curve" smooth="yes"/>
      <point x="140" y="630"/>
      <point x="113" y="623"/>
      <point x="89" y="598" type="curve"/>
      <point x="111" y="552" type="line"/>
      <point x="127" y="563"/>
      <point x="138" y="571"/>
      <point x="158" y="572" type="curve" smooth="yes"/>
      <point x="187" y="574"/>
      <point x="231" y="548"/>
      <point x="277" y="548" type="curve" smooth="yes"/>
      <point x="302" y="548"/>
      <point x="326" y="555"/>
    </contour>
  </outline>
</glyph>
<glyph name="Ubreve" format="1">
  <advance width="494"/>
  <unicode hex="016C"/>
  <outline>
    <contour>
      <point x="455" y="185" type="curve" smooth="yes"/>
      <point x="455" y="698" type="line"/>
      <point x="400" y="698" type="line"/>
      <point x="400" y="186" type="line" smooth="yes"/>
      <point x="400" y="140"/>
      <point x="385" y="106"/>
      <point x="361" y="81" type="curve" smooth="yes"/>
      <point x="334" y="54"/>
      <point x="294" y="42"/>
      <point x="246" y="42" type="curve" smooth="yes"/>
      <point x="204" y="42"/>
      <point x="166" y="53"/>
      <point x="140" y="74" type="curve" smooth="yes"/>
      <point x="109" y="98"/>
      <point x="92" y="135"/>
      <point x="92" y="186" type="curve" smooth="yes"/>
      <point x="92" y="698" type="line"/>
      <point x="37" y="698" type="line"/>
      <point x="37" y="185" type="line" smooth="yes"/>
      <point x="37" y="118"/>
      <point x="57" y="68"/>
      <point x="98" y="36" type="curve" smooth="yes"/>
      <point x="140" y="4"/>
      <point x="189" y="-11"/>
      <point x="247" y="-11" type="curve" smooth="yes"/>
      <point x="303" y="-11"/>
      <point x="352" y="4"/>
      <point x="393" y="36" type="curve" smooth="yes"/>
      <point x="434" y="68"/>
      <point x="455" y="118"/>
    </contour>
    <contour>
      <point x="359" y="857" type="curve" smooth="yes"/>
      <point x="359" y="864" type="line"/>
      <point x="314" y="864" type="line"/>
      <point x="314" y="857" type="line" smooth="yes"/>
      <point x="314" y="818"/>
      <point x="284" y="789"/>
      <point x="247" y="789" type="curve" smooth="yes"/>
      <point x="209" y="789"/>
      <point x="178" y="818"/>
      <point x="178" y="857" type="curve" smooth="yes"/>
      <point x="178" y="864" type="line"/>
      <point x="132" y="864" type="line"/>
      <point x="132" y="857" type="line" smooth="yes"/>
      <point x="132" y="794"/>
      <point x="184" y="744"/>
      <point x="246" y="744" type="curve" smooth="yes"/>
      <point x="308" y="744"/>
      <point x="359" y="794"/>
    </contour>
  </outline>
</glyph>
<glyph name="ubreve" format="1">
  <advance width="439"/>
  <unicode hex="016D"/>
  <outline>
    <contour>
      <point x="346" y="48" type="curve"/>
      <point x="346" y="0" type="line"/>
      <point x="402" y="0" type="line"/>
      <point x="402" y="499" type="line"/>
      <point x="346" y="499" type="line"/>
      <point x="346" y="172" type="line" smooth="yes"/>
      <point x="346" y="101"/>
      <point x="290" y="44"/>
      <point x="219" y="44" type="curve" smooth="yes"/>
      <point x="155" y="44"/>
      <point x="89" y="68"/>
      <point x="89" y="159" type="curve" smooth="yes"/>
      <point x="89" y="499" type="line"/>
      <point x="33" y="499" type="line"/>
      <point x="33" y="156" type="line" smooth="yes"/>
      <point x="33" y="43"/>
      <point x="96" y="-10"/>
      <point x="207" y="-10" type="curve" smooth="yes"/>
      <point x="257" y="-10"/>
      <point x="312" y="9"/>
    </contour>
    <contour>
      <point x="338" y="656" type="curve" smooth="yes"/>
      <point x="338" y="663" type="line"/>
      <point x="293" y="663" type="line"/>
      <point x="293" y="656" type="line" smooth="yes"/>
      <point x="293" y="618"/>
      <point x="263" y="588"/>
      <point x="226" y="588" type="curve" smooth="yes"/>
      <point x="188" y="588"/>
      <point x="158" y="618"/>
      <point x="158" y="656" type="curve" smooth="yes"/>
      <point x="158" y="663" type="line"/>
      <point x="113" y="663" type="line"/>
      <point x="113" y="656" type="line" smooth="yes"/>
      <point x="113" y="594"/>
      <point x="163" y="543"/>
      <point x="226" y="543" type="curve" smooth="yes"/>
      <point x="287" y="543"/>
      <point x="338" y="594"/>
    </contour>
  </outline>
</glyph>
<glyph name="uogonek" format="1">
  <advance width="494"/>
  <unicode hex="0173"/>
  <outline>
    <contour>
      <point x="348" y="48" type="curve"/>
      <point x="348" y="0" type="line"/>
      <point x="404" y="0" type="line"/>
      <point x="404" y="499" type="line"/>
      <point x="348" y="499" type="line"/>
      <point x="348" y="172" type="line" smooth="yes"/>
      <point x="348" y="101"/>
      <point x="292" y="44"/>
      <point x="221" y="44" type="curve" smooth="yes"/>
      <point x="157" y="44"/>
      <point x="91" y="68"/>
      <point x="91" y="159" type="curve" smooth="yes"/>
      <point x="91" y="499" type="line"/>
      <point x="35" y="499" type="line"/>
      <point x="35" y="156" type="line" smooth="yes"/>
      <point x="35" y="43"/>
      <point x="98" y="-10"/>
      <point x="209" y="-10" type="curve" smooth="yes"/>
      <point x="259" y="-10"/>
      <point x="314" y="9"/>
    </contour>
    <contour>
      <point x="328" y="-128" type="curve" smooth="yes"/>
      <point x="398" y="-3" type="line"/>
      <point x="398" y="5" type="line"/>
      <point x="354" y="3" type="line"/>
      <point x="354" y="-2" type="line"/>
      <point x="292" y="-113" type="line" smooth="yes"/>
      <point x="250" y="-185"/>
      <point x="299" y="-255"/>
      <point x="387" y="-230" type="curve" smooth="yes"/>
      <point x="406" y="-224"/>
      <point x="490" y="-196"/>
      <point x="492" y="-195" type="curve"/>
      <point x="474" y="-155" type="line"/>
      <point x="474" y="-155"/>
      <point x="431" y="-169"/>
      <point x="378" y="-188" type="curve" smooth="yes"/>
      <point x="328" y="-206"/>
      <point x="302" y="-174"/>
    </contour>
  </outline>
</glyph>
<glyph name="dotaccent" format="1">
  <advance width="206"/>
  <unicode hex="02D9"/>
  <outline>
    <contour>
      <point x="29" y="748" type="curve" smooth="yes"/>
      <point x="10" y="748"/>
      <point x="-4" y="733"/>
      <point x="-4" y="714" type="curve" smooth="yes"/>
      <point x="-4" y="696"/>
      <point x="10" y="681"/>
      <point x="29" y="681" type="curve" smooth="yes"/>
      <point x="47" y="681"/>
      <point x="62" y="696"/>
      <point x="62" y="714" type="curve" smooth="yes"/>
      <point x="62" y="733"/>
      <point x="47" y="748"/>
    </contour>
  </outline>
</glyph>
<glyph name="ring" format="1">
  <advance width="382"/>
  <unicode hex="02DA"/>
  <outline>
    <contour>
      <point x="108" y="773" type="curve" smooth="yes"/>
      <point x="45" y="773"/>
      <point x="-6" y="723"/>
      <point x="-6" y="660" type="curve" smooth="yes"/>
      <point x="-6" y="596"/>
      <point x="45" y="546"/>
      <point x="108" y="546" type="curve" smooth="yes"/>
      <point x="170" y="546"/>
      <point x="221" y="596"/>
      <point x="221" y="660" type="curve" smooth="yes"/>
      <point x="221" y="723"/>
      <point x="170" y="773"/>
    </contour>
    <contour>
      <point x="108" y="729" type="curve" smooth="yes"/>
      <point x="146" y="729"/>
      <point x="177" y="698"/>
      <point x="177" y="660" type="curve" smooth="yes"/>
      <point x="177" y="621"/>
      <point x="146" y="590"/>
      <point x="108" y="590" type="curve" smooth="yes"/>
      <point x="69" y="590"/>
      <point x="38" y="621"/>
      <point x="38" y="660" type="curve" smooth="yes"/>
      <point x="38" y="698"/>
      <point x="69" y="729"/>
    </contour>
  </outline>
</glyph>
<glyph name="tilde" format="1">
  <advance width="418"/>
  <unicode hex="02DC"/>
  <outline>
    <contour>
      <point x="238" y="694" type="line"/>
      <point x="224" y="683"/>
      <point x="204" y="673"/>
      <point x="185" y="674" type="curve" smooth="yes"/>
      <point x="172" y="674"/>
      <point x="125" y="700"/>
      <point x="77" y="700" type="curve" smooth="yes"/>
      <point x="50" y="700"/>
      <point x="22" y="692"/>
      <point x="-1" y="668" type="curve"/>
      <point x="21" y="621" type="line"/>
      <point x="35" y="632"/>
      <point x="47" y="640"/>
      <point x="66" y="641" type="curve" smooth="yes"/>
      <point x="97" y="643"/>
      <point x="141" y="617"/>
      <point x="187" y="617" type="curve" smooth="yes"/>
      <point x="211" y="617"/>
      <point x="235" y="624"/>
      <point x="258" y="647" type="curve"/>
    </contour>
  </outline>
</glyph>
<glyph name="Etatonos" format="1">
  <advance width="553"/>
  <unicode hex="0389"/>
  <outline>
    <contour>
      <point x="455" y="411" type="line"/>
      <point x="137" y="411" type="line"/>
      <point x="137" y="698" type="line"/>
      <point x="82" y="698" type="line"/>
      <point x="82" y="0" type="line"/>
      <point x="137" y="0" type="line"/>
      <point x="137" y="356" type="line"/>
      <point x="455" y="356" type="line"/>
      <point x="455" y="0" type="line"/>
      <point x="511" y="0" type="line"/>
      <point x="511" y="698" type="line"/>
      <point x="455" y="698" type="line"/>
    </contour>
    <contour>
      <point x="58" y="805" type="curve" smooth="yes"/>
      <point x="20" y="697" type="line"/>
      <point x="55" y="697" type="line"/>
      <point x="109" y="777" type="line"/>
      <point x="121" y="792"/>
      <point x="120" y="815"/>
      <point x="102" y="825" type="curve" smooth="yes"/>
      <point x="84" y="834"/>
      <point x="64" y="823"/>
    </contour>
  </outline>
</glyph>
<glyph name="Omegatonos" format="1">
  <advance width="582"/>
  <unicode hex="038F"/>
  <outline>
    <contour>
      <point x="536" y="196" type="curve" smooth="yes"/>
      <point x="536" y="502" type="line" smooth="yes"/>
      <point x="536" y="624"/>
      <point x="473" y="705"/>
      <point x="348" y="705" type="curve" smooth="yes"/>
      <point x="237" y="705" type="line" smooth="yes"/>
      <point x="113" y="705"/>
      <point x="49" y="624"/>
      <point x="49" y="502" type="curve" smooth="yes"/>
      <point x="49" y="196" type="line" smooth="yes"/>
      <point x="49" y="128"/>
      <point x="72" y="79"/>
      <point x="118" y="51" type="curve"/>
      <point x="53" y="51" type="line"/>
      <point x="37" y="0" type="line"/>
      <point x="263" y="0" type="line"/>
      <point x="263" y="51" type="line"/>
      <point x="204" y="51"/>
      <point x="155" y="79"/>
      <point x="137" y="100" type="curve" smooth="yes"/>
      <point x="116" y="123"/>
      <point x="105" y="155"/>
      <point x="105" y="196" type="curve" smooth="yes"/>
      <point x="105" y="512" type="line" smooth="yes"/>
      <point x="105" y="601"/>
      <point x="158" y="654"/>
      <point x="237" y="654" type="curve" smooth="yes"/>
      <point x="348" y="654" type="line" smooth="yes"/>
      <point x="427" y="654"/>
      <point x="480" y="601"/>
      <point x="480" y="512" type="curve" smooth="yes"/>
      <point x="480" y="196" type="line" smooth="yes"/>
      <point x="480" y="142"/>
      <point x="461" y="103"/>
      <point x="424" y="81" type="curve" smooth="yes"/>
      <point x="406" y="70"/>
      <point x="365" y="51"/>
      <point x="321" y="51" type="curve"/>
      <point x="321" y="0" type="line"/>
      <point x="549" y="0" type="line"/>
      <point x="532" y="51" type="line"/>
      <point x="463" y="51" type="line"/>
      <point x="512" y="80"/>
      <point x="536" y="129"/>
    </contour>
    <contour>
      <point x="76" y="812" type="curve" smooth="yes"/>
      <point x="38" y="705" type="line"/>
      <point x="73" y="705" type="line"/>
      <point x="127" y="784" type="line"/>
      <point x="139" y="799"/>
      <point x="138" y="822"/>
      <point x="120" y="832" type="curve" smooth="yes"/>
      <point x="103" y="842"/>
      <point x="82" y="831"/>
    </contour>
  </outline>
</glyph>
<glyph name="Lambda" format="1">
  <advance width="545"/>
  <unicode hex="039B"/>
  <outline>
    <contour>
      <point x="271" y="612" type="line"/>
      <point x="465" y="0" type="line"/>
      <point x="525" y="0" type="line"/>
      <point x="298" y="698" type="line"/>
      <point x="245" y="698" type="line"/>
      <point x="21" y="0" type="line"/>
      <point x="81" y="0" type="line"/>
    </contour>
  </outline>
</glyph>
<glyph name="Nu" format="1">
  <advance width="575"/>
  <unicode hex="039D"/>
  <outline>
    <contour>
      <point x="532" y="698" type="line"/>
      <point x="476" y="698" type="line"/>
      <point x="476" y="102" type="line"/>
      <point x="97" y="698" type="line"/>
      <point x="41" y="698" type="line"/>
      <point x="41" y="0" type="line"/>
      <point x="97" y="0" type="line"/>
      <point x="97" y="595" type="line"/>
      <point x="476" y="0" type="line"/>
      <point x="532" y="0" type="line"/>
    </contour>
  </outline>
</glyph>
<glyph name="Pi" format="1">
  <advance width="513"/>
  <unicode hex="03A0"/>
  <outline>
    <contour>
      <point x="413" y="0" type="line"/>
      <point x="470" y="0" type="line"/>
      <point x="470" y="698" type="line"/>
      <point x="41" y="698" type="line"/>
      <point x="41" y="0" type="line"/>
      <point x="97" y="0" type="line"/>
      <point x="97" y="641" type="line"/>
      <point x="413" y="641" type="line"/>
    </contour>
  </outline>
</glyph>
<glyph name="Iotadieresis" format="1">
  <advance width="242"/>
  <unicode hex="03AA"/>
  <outline>
    <contour>
      <point x="47" y="649" type="line"/>
      <point x="114" y="647" type="line"/>
      <point x="114" y="0" type="line"/>
      <point x="170" y="0" type="line"/>
      <point x="170" y="698" type="line"/>
      <point x="47" y="698" type="line"/>
    </contour>
    <contour>
      <point x="193" y="834" type="curve" smooth="yes"/>
      <point x="174" y="834"/>
      <point x="159" y="818"/>
      <point x="159" y="800" type="curve" smooth="yes"/>
      <point x="159" y="782"/>
      <point x="174" y="767"/>
      <point x="193" y="767" type="curve" smooth="yes"/>
      <point x="211" y="767"/>
      <point x="226" y="782"/>
      <point x="226" y="800" type="curve" smooth="yes"/>
      <point x="226" y="818"/>
      <point x="211" y="834"/>
    </contour>
    <contour>
      <point x="35" y="834" type="curve" smooth="yes"/>
      <point x="16" y="834"/>
      <point x="2" y="818"/>
      <point x="2" y="800" type="curve" smooth="yes"/>
      <point x="2" y="782"/>
      <point x="16" y="767"/>
      <point x="35" y="767" type="curve" smooth="yes"/>
      <point x="53" y="767"/>
      <point x="68" y="782"/>
      <point x="68" y="800" type="curve" smooth="yes"/>
      <point x="68" y="818"/>
      <point x="53" y="834"/>
    </contour>
  </outline>
</glyph>
<glyph name="alpha" format="1">
  <advance width="438"/>
  <unicode hex="03B1"/>
  <outline>
    <contour>
      <point x="402" y="485" type="curve"/>
      <point x="358" y="506" type="line"/>
      <point x="350" y="488"/>
      <point x="345" y="463"/>
      <point x="345" y="463" type="curve"/>
      <point x="291" y="490"/>
      <point x="231" y="506"/>
      <point x="178" y="506" type="curve" smooth="yes"/>
      <point x="103" y="506"/>
      <point x="31" y="471"/>
      <point x="31" y="353" type="curve" smooth="yes"/>
      <point x="31" y="168" type="line" smooth="yes"/>
      <point x="31" y="19"/>
      <point x="130" y="-7"/>
      <point x="225" y="-4" type="curve" smooth="yes"/>
      <point x="271" y="-2"/>
      <point x="395" y="4"/>
      <point x="395" y="4" type="curve"/>
      <point x="395" y="399" type="line" smooth="yes"/>
      <point x="395" y="447"/>
      <point x="402" y="485"/>
    </contour>
    <contour>
      <point x="86" y="162" type="curve" smooth="yes"/>
      <point x="86" y="350" type="line" smooth="yes"/>
      <point x="86" y="448"/>
      <point x="144" y="457"/>
      <point x="176" y="454" type="curve"/>
      <point x="216" y="454"/>
      <point x="271" y="441"/>
      <point x="339" y="414" type="curve"/>
      <point x="339" y="52" type="line"/>
      <point x="339" y="52"/>
      <point x="276" y="46"/>
      <point x="205" y="46" type="curve" smooth="yes"/>
      <point x="126" y="46"/>
      <point x="86" y="87"/>
    </contour>
  </outline>
</glyph>
<glyph name="zeta" format="1">
  <advance width="412"/>
  <unicode hex="03B6"/>
  <outline>
    <contour>
      <point x="387" y="652" type="curve"/>
      <point x="365" y="698" type="line"/>
      <point x="94" y="698" type="line"/>
      <point x="94" y="651" type="line"/>
      <point x="303" y="651" type="line"/>
      <point x="257" y="608"/>
      <point x="216" y="563"/>
      <point x="183" y="521" type="curve" smooth="yes"/>
      <point x="146" y="477"/>
      <point x="116" y="435"/>
      <point x="93" y="394" type="curve" smooth="yes"/>
      <point x="48" y="313"/>
      <point x="27" y="243"/>
      <point x="26" y="184" type="curve" smooth="yes"/>
      <point x="25" y="128"/>
      <point x="42" y="81"/>
      <point x="74" y="50" type="curve" smooth="yes"/>
      <point x="122" y="3"/>
      <point x="201" y="-13"/>
      <point x="298" y="8" type="curve"/>
      <point x="298" y="-183" type="line"/>
      <point x="354" y="-209" type="line"/>
      <point x="354" y="71" type="line"/>
      <point x="237" y="41"/>
      <point x="161" y="50"/>
      <point x="121" y="82" type="curve" smooth="yes"/>
      <point x="92" y="106"/>
      <point x="80" y="141"/>
      <point x="82" y="183" type="curve" smooth="yes"/>
      <point x="84" y="235"/>
      <point x="106" y="298"/>
      <point x="141" y="364" type="curve" smooth="yes"/>
      <point x="166" y="408"/>
      <point x="196" y="454"/>
      <point x="231" y="498" type="curve" smooth="yes"/>
      <point x="311" y="601"/>
      <point x="387" y="652"/>
    </contour>
  </outline>
</glyph>
<glyph name="lambda" format="1">
  <advance width="502"/>
  <unicode hex="03BB"/>
  <outline>
    <contour>
      <point x="397" y="123" type="curve" smooth="yes"/>
      <point x="267" y="555" type="line" smooth="yes"/>
      <point x="252" y="598"/>
      <point x="236" y="692"/>
      <point x="117" y="695" type="curve"/>
      <point x="107" y="652" type="line"/>
      <point x="160" y="651"/>
      <point x="190" y="619"/>
      <point x="203" y="576" type="curve" smooth="yes"/>
      <point x="225" y="504" type="line"/>
      <point x="168" y="482"/>
      <point x="149" y="427"/>
      <point x="131" y="370" type="curve" smooth="yes"/>
      <point x="94" y="246"/>
      <point x="59" y="122"/>
      <point x="23" y="-1" type="curve"/>
      <point x="79" y="-1" type="line"/>
      <point x="114" y="119"/>
      <point x="149" y="239"/>
      <point x="184" y="359" type="curve" smooth="yes"/>
      <point x="202" y="422"/>
      <point x="219" y="442"/>
      <point x="242" y="454" type="curve"/>
      <point x="276" y="340"/>
      <point x="311" y="226"/>
      <point x="345" y="111" type="curve" smooth="yes"/>
      <point x="366" y="40"/>
      <point x="388" y="2"/>
      <point x="447" y="-11" type="curve"/>
      <point x="459" y="-1"/>
      <point x="472" y="10"/>
      <point x="484" y="20" type="curve"/>
      <point x="426" y="38"/>
      <point x="403" y="101"/>
    </contour>
  </outline>
</glyph>
<glyph name="rho" format="1">
  <advance width="436"/>
  <unicode hex="03C1"/>
  <outline>
    <contour>
      <point x="404" y="170" type="curve" smooth="yes"/>
      <point x="404" y="310" type="line" smooth="yes"/>
      <point x="404" y="431"/>
      <point x="340" y="506"/>
      <point x="221" y="506" type="curve" smooth="yes"/>
      <point x="103" y="506"/>
      <point x="35" y="437"/>
      <point x="35" y="310" type="curve" smooth="yes"/>
      <point x="35" y="-205" type="line"/>
      <point x="92" y="-218" type="line"/>
      <point x="92" y="56" type="line"/>
      <point x="115" y="14"/>
      <point x="173" y="-18"/>
      <point x="235" y="-18" type="curve" smooth="yes"/>
      <point x="345" y="-18"/>
      <point x="404" y="47"/>
    </contour>
    <contour>
      <point x="348" y="310" type="curve" smooth="yes"/>
      <point x="348" y="162" type="line" smooth="yes"/>
      <point x="348" y="78"/>
      <point x="306" y="35"/>
      <point x="230" y="35" type="curve" smooth="yes"/>
      <point x="154" y="35"/>
      <point x="92" y="82"/>
      <point x="92" y="167" type="curve" smooth="yes"/>
      <point x="92" y="310" type="line" smooth="yes"/>
      <point x="92" y="407"/>
      <point x="136" y="454"/>
      <point x="224" y="454" type="curve" smooth="yes"/>
      <point x="308" y="454"/>
      <point x="348" y="407"/>
    </contour>
  </outline>
</glyph>
<glyph name="chi" format="1">
  <advance width="487"/>
  <unicode hex="03C7"/>
  <outline>
    <contour>
      <point x="376" y="-96" type="curve" smooth="yes"/>
      <point x="255" y="152" type="line"/>
      <point x="432" y="498" type="line"/>
      <point x="369" y="498" type="line"/>
      <point x="225" y="216" type="line"/>
      <point x="87" y="498" type="line"/>
      <point x="25" y="498" type="line"/>
      <point x="193" y="154" type="line"/>
      <point x="21" y="-180" type="line"/>
      <point x="73" y="-204" type="line"/>
      <point x="224" y="91" type="line"/>
      <point x="325" y="-117" type="line" smooth="yes"/>
      <point x="358" y="-180"/>
      <point x="402" y="-211"/>
      <point x="456" y="-211" type="curve"/>
      <point x="484" y="-173" type="line"/>
      <point x="431" y="-164"/>
      <point x="398" y="-146"/>
    </contour>
  </outline>
</glyph>
<glyph name="upsilontonos" format="1">
  <advance width="434"/>
  <unicode hex="03CD"/>
  <outline>
    <contour>
      <point x="401" y="184" type="curve" smooth="yes"/>
      <point x="401" y="499" type="line"/>
      <point x="347" y="499" type="line"/>
      <point x="347" y="174" type="line" smooth="yes"/>
      <point x="347" y="92"/>
      <point x="303" y="40"/>
      <point x="220" y="40" type="curve" smooth="yes"/>
      <point x="140" y="40"/>
      <point x="88" y="94"/>
      <point x="88" y="174" type="curve" smooth="yes"/>
      <point x="88" y="499" type="line"/>
      <point x="31" y="499" type="line"/>
      <point x="31" y="184" type="line" smooth="yes"/>
      <point x="31" y="75"/>
      <point x="95" y="-10"/>
      <point x="219" y="-10" type="curve" smooth="yes"/>
      <point x="342" y="-10"/>
      <point x="401" y="71"/>
    </contour>
    <contour>
      <point x="240" y="650" type="curve" smooth="yes"/>
      <point x="203" y="543" type="line"/>
      <point x="238" y="543" type="line"/>
      <point x="291" y="621" type="line"/>
      <point x="304" y="637"/>
      <point x="302" y="660"/>
      <point x="284" y="670" type="curve" smooth="yes"/>
      <point x="267" y="680"/>
      <point x="247" y="669"/>
    </contour>
  </outline>
</glyph>
<glyph name="bullet" format="1">
  <advance width="342"/>
  <unicode hex="2022"/>
  <outline>
    <contour>
      <point x="268" y="435" type="curve" smooth="yes"/>
      <point x="241" y="462"/>
      <point x="208" y="476"/>
      <point x="169" y="476" type="curve" smooth="yes"/>
      <point x="131" y="476"/>
      <point x="98" y="462"/>
      <point x="70" y="435" type="curve" smooth="yes"/>
      <point x="42" y="407"/>
      <point x="29" y="374"/>
      <point x="29" y="335" type="curve" smooth="yes"/>
      <point x="29" y="297"/>
      <point x="42" y="264"/>
      <point x="70" y="237" type="curve" smooth="yes"/>
      <point x="98" y="209"/>
      <point x="131" y="195"/>
      <point x="169" y="195" type="curve" smooth="yes"/>
      <point x="208" y="195"/>
      <point x="241" y="209"/>
      <point x="268" y="237" type="curve" smooth="yes"/>
      <point x="296" y="264"/>
      <point x="310" y="297"/>
      <point x="310" y="335" type="curve" smooth="yes"/>
      <point x="310" y="374"/>
      <point x="296" y="407"/>
    </contour>
  </outline>
</glyph>
<glyph name="perthousand" format="1">
  <advance width="1055"/>
  <unicode hex="2030"/>
  <outline>
    <contour>
      <point x="49" y="0" type="line"/>
      <point x="117" y="0" type="line"/>
      <point x="650" y="698" type="line"/>
      <point x="586" y="698" type="line"/>
    </contour>
    <contour>
      <point x="175" y="712" type="curve" smooth="yes"/>
      <point x="94" y="712"/>
      <point x="29" y="647"/>
      <point x="29" y="566" type="curve" smooth="yes"/>
      <point x="29" y="486"/>
      <point x="94" y="421"/>
      <point x="175" y="421" type="curve" smooth="yes"/>
      <point x="254" y="421"/>
      <point x="320" y="486"/>
      <point x="320" y="566" type="curve" smooth="yes"/>
      <point x="320" y="647"/>
      <point x="254" y="712"/>
    </contour>
    <contour>
      <point x="175" y="661" type="curve" smooth="yes"/>
      <point x="226" y="661"/>
      <point x="268" y="618"/>
      <point x="268" y="566" type="curve" smooth="yes"/>
      <point x="268" y="515"/>
      <point x="226" y="472"/>
      <point x="175" y="472" type="curve" smooth="yes"/>
      <point x="122" y="472"/>
      <point x="80" y="515"/>
      <point x="80" y="566" type="curve" smooth="yes"/>
      <point x="80" y="618"/>
      <point x="122" y="661"/>
    </contour>
    <contour>
      <point x="534" y="276" type="curve" smooth="yes"/>
      <point x="454" y="276"/>
      <point x="389" y="211"/>
      <point x="389" y="131" type="curve" smooth="yes"/>
      <point x="389" y="51"/>
      <point x="454" y="-14"/>
      <point x="534" y="-14" type="curve" smooth="yes"/>
      <point x="615" y="-14"/>
      <point x="679" y="51"/>
      <point x="679" y="131" type="curve" smooth="yes"/>
      <point x="679" y="211"/>
      <point x="615" y="276"/>
    </contour>
    <contour>
      <point x="534" y="226" type="curve" smooth="yes"/>
      <point x="586" y="226"/>
      <point x="629" y="184"/>
      <point x="629" y="131" type="curve" smooth="yes"/>
      <point x="629" y="79"/>
      <point x="586" y="37"/>
      <point x="534" y="37" type="curve" smooth="yes"/>
      <point x="483" y="37"/>
      <point x="440" y="79"/>
      <point x="440" y="131" type="curve" smooth="yes"/>
      <point x="440" y="184"/>
      <point x="483" y="226"/>
    </contour>
    <contour>
      <point x="880" y="276" type="curve" smooth="yes"/>
      <point x="799" y="276"/>
      <point x="735" y="211"/>
      <point x="735" y="131" type="curve" smooth="yes"/>
      <point x="735" y="51"/>
      <point x="799" y="-14"/>
      <point x="880" y="-14" type="curve" smooth="yes"/>
      <point x="960" y="-14"/>
      <point x="1025" y="51"/>
      <point x="1025" y="131" type="curve" smooth="yes"/>
      <point x="1025" y="211"/>
      <point x="960" y="276"/>
    </contour>
    <contour>
      <point x="880" y="226" type="curve" smooth="yes"/>
      <point x="931" y="226"/>
      <point x="973" y="184"/>
      <point x="973" y="131" type="curve" smooth="yes"/>
      <point x="973" y="79"/>
      <point x="931" y="37"/>
      <point x="880" y="37" type="curve" smooth="yes"/>
      <point x="827" y="37"/>
      <point x="785" y="79"/>
      <point x="785" y="131" type="curve" smooth="yes"/>
      <point x="785" y="184"/>
      <point x="827" y="226"/>
    </contour>
  </outline>
</glyph>
<glyph name="guilsinglright" format="1">
  <advance width="283"/>
  <unicode hex="203A"/>
  <outline>
    <contour>
      <point x="180" y="266" type="line"/>
      <point x="33" y="113" type="line"/>
      <point x="68" y="79" type="line"/>
      <point x="254" y="266" type="line"/>
      <point x="68" y="453" type="line"/>
      <point x="31" y="416" type="line"/>
    </contour>
  </outline>
</glyph>
<glyph name="Euro" format="1">
  <advance width="473"/>
  <unicode hex="20AC"/>
  <outline>
    <contour>
      <point x="141" y="185" type="curve" smooth="yes"/>
      <point x="141" y="266" type="line"/>
      <point x="387" y="266" type="line"/>
      <point x="387" y="322" type="line"/>
      <point x="141" y="322" type="line"/>
      <point x="141" y="375" type="line"/>
      <point x="387" y="375" type="line"/>
      <point x="387" y="432" type="line"/>
      <point x="141" y="432" type="line"/>
      <point x="141" y="512" type="line" smooth="yes"/>
      <point x="141" y="568"/>
      <point x="157" y="607"/>
      <point x="191" y="631" type="curve" smooth="yes"/>
      <point x="217" y="649"/>
      <point x="252" y="658"/>
      <point x="296" y="658" type="curve" smooth="yes"/>
      <point x="330" y="658"/>
      <point x="366" y="651"/>
      <point x="404" y="637" type="curve"/>
      <point x="420" y="675" type="line"/>
      <point x="377" y="697"/>
      <point x="329" y="708"/>
      <point x="278" y="708" type="curve" smooth="yes"/>
      <point x="238" y="708"/>
      <point x="201" y="700"/>
      <point x="172" y="683" type="curve" smooth="yes"/>
      <point x="112" y="647"/>
      <point x="85" y="590"/>
      <point x="85" y="503" type="curve" smooth="yes"/>
      <point x="85" y="432" type="line"/>
      <point x="29" y="432" type="line"/>
      <point x="29" y="375" type="line"/>
      <point x="85" y="375" type="line"/>
      <point x="85" y="322" type="line"/>
      <point x="29" y="322" type="line"/>
      <point x="29" y="266" type="line"/>
      <point x="85" y="266" type="line"/>
      <point x="85" y="183" type="line" smooth="yes"/>
      <point x="85" y="99"/>
      <point x="118" y="42"/>
      <point x="165" y="15" type="curve"/>
      <point x="215" y="-10"/>
      <point x="262" y="-10"/>
      <point x="283" y="-10" type="curve" smooth="yes"/>
      <point x="334" y="-10"/>
      <point x="388" y="1"/>
      <point x="444" y="23" type="curve"/>
      <point x="432" y="69" type="line"/>
      <point x="376" y="50"/>
      <point x="328" y="40"/>
      <point x="288" y="40" type="curve" smooth="yes"/>
      <point x="242" y="40"/>
      <point x="209" y="48"/>
      <point x="187" y="65" type="curve" smooth="yes"/>
      <point x="152" y="90"/>
      <point x="141" y="132"/>
    </contour>
  </outline>
</glyph>
<glyph name="trademark" format="1">
  <advance width="428"/>
  <unicode hex="2122"/>
  <outline>
    <contour>
      <point x="127" y="664" type="line"/>
      <point x="190" y="664" type="line"/>
      <point x="190" y="512" type="line"/>
      <point x="224" y="512" type="line"/>
      <point x="224" y="651" type="line"/>
      <point x="282" y="512" type="line"/>
      <point x="303" y="512" type="line"/>
      <point x="362" y="651" type="line"/>
      <point x="362" y="512" type="line"/>
      <point x="393" y="512" type="line"/>
      <point x="393" y="698" type="line"/>
      <point x="351" y="698" type="line"/>
      <point x="293" y="561" type="line"/>
      <point x="233" y="698" type="line"/>
      <point x="23" y="698" type="line"/>
      <point x="23" y="664" type="line"/>
      <point x="94" y="664" type="line"/>
      <point x="94" y="512" type="line"/>
      <point x="127" y="512" type="line"/>
    </contour>
  </outline>
</glyph>
<glyph name="Y_alt" format="1">
  <advance width="485"/>
  <unicode hex="9997"/>
  <outline>
    <contour>
      <point x="269" y="341" type="line"/>
      <point x="477" y="698" type="line"/>
      <point x="413" y="698" type="line"/>
      <point x="240" y="405" type="line"/>
      <point x="69" y="698" type="line"/>
      <point x="6" y="698" type="line"/>
      <point x="213" y="339" type="line"/>
      <point x="213" y="0" type="line"/>
      <point x="269" y="0" type="line"/>
    </contour>
  </outline>
</glyph>
